<svg id="Layer_1" xmlns="http://www.w3.org/2000/svg" xmlns:xlink="http://www.w3.org/1999/xlink" viewBox="0 0 156.5 156.6"><style>.st0{clip-path:url(#XMLID_74_);fill:#53bec2}.st1{fill:#2a65af}.st2{clip-path:url(#XMLID_75_);fill:#f8b935}.st3{fill:none;stroke-width:1.02;stroke-linejoin:bevel;stroke-miterlimit:10}.st3,.st4{clip-path:url(#XMLID_76_);stroke:#2a65af}.st4,.st5{fill:none;stroke-width:2.0419;stroke-miterlimit:10}.st5{clip-path:url(#XMLID_77_);stroke:#FFF}</style><g id="XMLID_71_"><defs><path id="XMLID_72_" d="M4.6.8h148.3v155.5H4.6z"/></defs><clipPath id="XMLID_74_"><use xlink:href="#XMLID_72_" overflow="visible"/></clipPath><path id="XMLID_73_" class="st0" d="M8.3 28.6C6.3 33.9 5.4 37 5 42.8c-.9 11.1.1 15.1 1 21.3.8 6.3 16.2 57.7 16.2 57.7l-7.6 34.4h84.6l1.4-16.1 33.9 3.9 2.2-42.8 16.1-.6-16.5-43.4V32.8c-.3-1.5-.6-2.9-1-4.3l-127 .1z"/></g><path id="XMLID_70_" class="st1" d="M58.1 83.8h20.4v4H58.1z"/><g id="XMLID_67_"><defs><path id="XMLID_68_" d="M1.1.8h155.4v155.5H1.1z"/></defs><clipPath id="XMLID_75_"><use xlink:href="#XMLID_68_" overflow="visible"/></clipPath><path id="XMLID_69_" class="st2" d="M55.2 60.5c-6.5-5.4-11.9-12.3-11.9-21.3 0-13.8 11.2-25 25-25s25 11.2 25 25c0 8.6-4.4 16.3-11 20.8 0 0-5.3 4.3-4.2 13.3H57.4s3.1-8.4-2.2-12.8"/></g><g id="XMLID_5_"><defs><path id="XMLID_6_" d="M4.6.8h148.3v155.5H4.6z"/></defs><clipPath id="XMLID_76_"><use xlink:href="#XMLID_6_" overflow="visible"/></clipPath><path id="XMLID_66_" class="st3" d="M58.4 75.1h20.2l-20.5 5.5h20.1"/><path id="XMLID_59_" class="st4" d="M34.3 16.8l7 5.4m52.9 1.5l7.9-4.1m-51.3-5.4l-5.6-6.9m17.7 2.3L60.5 1m15.6 8.6L78.3 1M87 14.1l5.8-6.7"/></g><g id="XMLID_2_"><defs><path id="XMLID_3_" d="M1.1.8h155.4v155.5H1.1z"/></defs><clipPath id="XMLID_77_"><use xlink:href="#XMLID_3_" overflow="visible"/></clipPath><path id="XMLID_4_" class="st5" d="M70.2 66.5s.4-24.2 11.9-26.6l-27.6.2s10.2-1.3 10.6 26.3"/></g></svg>