<svg id="Layer_1" xmlns="http://www.w3.org/2000/svg" xmlns:xlink="http://www.w3.org/1999/xlink" viewBox="0 0 156.5 156.6"><style>.st0{clip-path:url(#XMLID_69_);fill:#53bec2}.st1{fill:#2a65af}.st1,.st2{clip-path:url(#XMLID_69_)}.st2{fill:#f1f0ef}.st3{fill:#1b4067}.st3,.st4{clip-path:url(#XMLID_69_)}.st4{fill:#FFF}.st5{fill:none;stroke:#1b4067;stroke-width:4.2103;stroke-miterlimit:10}.st5,.st6{clip-path:url(#XMLID_69_)}.st6{fill:#c3c2c4}</style><g id="XMLID_68_"><defs><path id="XMLID_1_" d="M0-8.9h154.6v154.7H0z"/></defs><clipPath id="XMLID_69_"><use xlink:href="#XMLID_1_" overflow="visible"/></clipPath><path id="XMLID_66_" class="st0" d="M154.6 68.4c0 37.8-30.6 68.4-68.4 68.4s-68.4-30.6-68.4-68.4C17.7 30.6 48.3 0 86.1 0s68.5 30.6 68.5 68.4"/><path id="XMLID_65_" class="st1" d="M60.7 118.3H7.3S1.6 108.5 0 95.4h60.7v22.9z"/><path id="XMLID_64_" class="st2" d="M60.7 96.9h5.8v19.8h-5.8z"/><path id="XMLID_63_" class="st3" d="M49.8 99.4c0 .7.6 1.3 1.3 1.3.7 0 1.3-.6 1.3-1.3 0-.7-.6-1.3-1.3-1.3-.7 0-1.3.5-1.3 1.3"/><path id="XMLID_62_" class="st3" d="M44.3 99.4c0 .7.6 1.3 1.3 1.3.7 0 1.3-.6 1.3-1.3 0-.7-.6-1.3-1.3-1.3-.7 0-1.3.5-1.3 1.3"/><path id="XMLID_61_" class="st3" d="M55 99.4c0 .7.6 1.3 1.3 1.3.7 0 1.3-.6 1.3-1.3 0-.7-.6-1.3-1.3-1.3-.8 0-1.3.5-1.3 1.3"/><path id="XMLID_60_" class="st4" d="M67.2 98.1h2.2l2-2.6s1.6-1.8-.2-4.8l-2.4-4.9s-1.1-2.3 1.8-1.8c2.9.5 3 2.7 6.4 9.4 0 0 1.3 4.3 5.5 2.6 4.2-1.7 13.4-6 17.9-10 0 0 2.3-2.3 5.5-2.1 0 0 2.7 1 .5 3.2s-16.1 14.4-16.1 14.4-5.2 4.8-12.8 7.6c-7.6 2.8-11 3.9-11 3.9V98h.7z"/><path id="XMLID_59_" class="st4" d="M56.2 78.7h59.9c3.9 0 7.2-3.2 7.2-7.2V33.9c0-3.9-3.2-7.2-7.2-7.2H56.2c-3.9 0-7.2 3.2-7.2 7.2v37.7c0 3.9 3.2 7.1 7.2 7.1"/><path id="XMLID_6_" class="st5" d="M56.2 78.7h59.9c3.9 0 7.2-3.2 7.2-7.2V33.9c0-3.9-3.2-7.2-7.2-7.2H56.2c-3.9 0-7.2 3.2-7.2 7.2v37.7c0 3.9 3.2 7.1 7.2 7.1z"/><path id="XMLID_5_" class="st2" d="M29.1 79.9h113.1v4H29.1z"/><path id="XMLID_4_" class="st6" d="M60.4 36.4h53.1v5.8H60.4z"/><path id="XMLID_3_" class="st6" d="M60.4 49.8h53.1v5.8H60.4z"/><path id="XMLID_2_" class="st6" d="M60.4 62.6h53.1v5.8H60.4z"/></g></svg>