<svg id="Layer_1" xmlns="http://www.w3.org/2000/svg" xmlns:xlink="http://www.w3.org/1999/xlink" viewBox="0 0 156.5 156.6"><style>.st0{fill:#53bec2}.st0,.st1{clip-path:url(#XMLID_60_)}.st1{fill:#2a65af}</style><defs><path id="XMLID_1_" d="M0 0h156.5v156.6H0z"/></defs><clipPath id="XMLID_60_"><use xlink:href="#XMLID_1_" overflow="visible"/></clipPath><path id="XMLID_6_" class="st0" d="M156.5 78.3c0 43.2-35 78.2-78.2 78.2S0 121.5 0 78.3 35 0 78.2 0s78.3 35.1 78.3 78.3"/><path id="XMLID_5_" class="st1" d="M78.2 19.8c7.9 0 14.3 6.4 14.3 14.3s-6.4 14.3-14.3 14.3S63.9 42 63.9 34.1s6.4-14.3 14.3-14.3"/><path id="XMLID_4_" class="st1" d="M93.2 102.2V62.1l41.3-36.6-7.6-8.6-40 35.5H69.6L29.5 16.9 22 25.5l40.7 36.1v40.6"/><path id="XMLID_3_" class="st1" d="M108.7 149.1l-11.1 3.7-18.4-51.4h13.4z"/><path id="XMLID_2_" class="st1" d="M47.2 149.1l11.1 3.7 19.1-51.4H63.3z"/></svg>