<svg id="Layer_1" xmlns="http://www.w3.org/2000/svg" xmlns:xlink="http://www.w3.org/1999/xlink" viewBox="0 0 156.5 156.6"><style>.st0{clip-path:url(#XMLID_64_);fill:#2a65af}.st1,.st2{clip-path:url(#XMLID_65_);fill:#53bec2}.st2{fill:#2a65af}</style><defs><path id="XMLID_61_" d="M27.8-.4h101.7V157H27.8z"/></defs><clipPath id="XMLID_64_"><use xlink:href="#XMLID_61_" overflow="visible"/></clipPath><path id="XMLID_62_" class="st0" d="M56 155.1l-20.8-.1c-4 0-7.3-3.3-7.3-7.4l.2-55.5c0-4 3.3-7.3 7.4-7.3l20.9.1c4.1 0 7.3 3.3 7.3 7.4l-.2 55.5c-.1 4-3.4 7.3-7.5 7.3"/><g><defs><path id="XMLID_1_" d="M0-.4h157.4V157H0z"/></defs><clipPath id="XMLID_65_"><use xlink:href="#XMLID_1_" overflow="visible"/></clipPath><path id="XMLID_60_" class="st1" d="M53.1 142.6c-2.2 0-3.9-1.8-3.9-3.9l.2-39.5c0-2.2 1.8-3.9 3.9-3.9 2.2 0 3.9 1.8 3.9 3.9l-.2 39.5c0 2.1-1.7 3.9-3.9 3.9"/><path id="XMLID_59_" class="st1" d="M39.2 142.5c-2.2 0-3.9-1.8-3.9-3.9l.2-39.5c0-2.2 1.8-3.9 3.9-3.9 2.2 0 3.9 1.8 3.9 3.9l-.2 39.5c.1 2.2-1.7 3.9-3.9 3.9"/><path id="XMLID_6_" class="st2" d="M53.7 81.2c0-1.9 1.3-3.4 3-3.9-.3-.1-.6-.1-1-.1l-19.1-.1c-.4 0-.8.1-1.2.2 1.6.6 2.8 2.1 2.7 3.8 0 1.8-1.2 3.3-2.9 3.9.3.1.7.2 1.1.2l19.1.1c.4 0 .7-.1 1.1-.2-1.6-.5-2.8-2.1-2.8-3.9"/><path id="XMLID_5_" class="st2" d="M56.6 77.5l-21.4-.1c-2.3 0-4.1-1.9-4.1-4.2 0-2.3 1.9-4.1 4.2-4.1l21.4.1c2.3 0 4.1 1.9 4.1 4.2 0 2.2-1.9 4.1-4.2 4.1"/><path id="XMLID_4_" class="st2" d="M41.3-.4l1.8 16.7-.2 52.5 6.2.1.2-52.6 2-16.6z"/><path class="st2" d="M114.3 112.8V41.9c8.7-3.2 15-11.6 15-21.4 0-8.6-4.8-16.1-11.8-20v20h-22V.5c-7 3.9-11.8 11.4-11.8 20 0 9.8 6.3 18.2 15 21.4v71c-8.6 3.2-14.8 11.6-14.8 21.3 0 12.6 10.2 22.8 22.8 22.8 12.6 0 22.8-10.2 22.8-22.8 0-9.9-6.3-18.3-15.2-21.4m-.6 33.6h-14l-7-12.2 7-12.2h14.1l7 12.2-7.1 12.2z"/></g></svg>