<svg id="Layer_1" xmlns="http://www.w3.org/2000/svg" xmlns:xlink="http://www.w3.org/1999/xlink" viewBox="0 0 156.5 156.6"><style>.st0{clip-path:url(#XMLID_64_);fill:#2a65af}.st1{clip-path:url(#XMLID_66_);fill:#53bec2}.st2{clip-path:url(#XMLID_67_);fill:#2a65af}</style><g id="XMLID_74_"><defs><path id="XMLID_60_" d="M0-12h157.9v143.7H0z"/></defs><clipPath id="XMLID_64_"><use xlink:href="#XMLID_60_" overflow="visible"/></clipPath><path id="XMLID_61_" class="st0" d="M120.4 105.3c-20.7 0-37.5-16.8-37.5-37.5s16.8-37.5 37.5-37.5 37.5 16.8 37.5 37.5c0 20.4-17.3 56.7-37.5 57.3"/></g><g id="XMLID_68_"><defs><path id="XMLID_4_" d="M0 .2h157.9V125H0z"/></defs><clipPath id="XMLID_66_"><use xlink:href="#XMLID_4_" overflow="visible"/></clipPath><path id="XMLID_71_" class="st1" d="M108.5 58.8h11.9v9.1c0 3.4-.7 6-2.1 8-1.4 1.9-3.8 3.7-7.2 5.2l-2.6-4.8c2.1-1 3.5-2 4.3-2.9.8-1 1.2-2.1 1.3-3.4h-5.7V58.8zm13.8 0h11.9v9.1c0 3.4-.7 6-2.1 8s-3.8 3.7-7.2 5.2l-2.6-4.8c2.1-1 3.5-2 4.3-2.9.8-1 1.2-2.1 1.3-3.4h-5.7V58.8z"/><path id="XMLID_5_" class="st1" d="M37.5 75.3C58.2 75.3 75 58.5 75 37.8 75 17 58.2.2 37.5.2S0 17 0 37.8C0 58.1 17.3 94.5 37.5 95"/></g><g id="XMLID_63_"><defs><path id="XMLID_1_" d="M0-12h157.9v143.7H0z"/></defs><clipPath id="XMLID_67_"><use xlink:href="#XMLID_1_" overflow="visible"/></clipPath><path id="XMLID_65_" class="st2" d="M49.4 39.7h-5.7c.1 1.3.5 2.5 1.3 3.4.8 1 2.2 1.9 4.3 2.9l-2.6 4.8c-3.4-1.5-5.8-3.2-7.2-5.2s-2.1-4.6-2.1-8v-9.1h11.9v11.2zm-13.8 0h-5.7c.1 1.3.5 2.5 1.3 3.4.8 1 2.2 1.9 4.3 2.9L33 50.9c-3.4-1.5-5.8-3.2-7.2-5.2-1.4-1.9-2.1-4.6-2.1-8v-9.1h11.9v11.1z"/></g></svg>