<svg id="Livello_1" xmlns="http://www.w3.org/2000/svg" viewBox="0 0 558 100"><style>.st0{fill:#d9ecfa;stroke:#06c;stroke-width:.5009;stroke-miterlimit:10;enable-background:new}.st1{fill:#fff}.st2{fill:#06c}.st3{fill:#53bbc0}.st4{fill:#f8b736}.st5{fill:#2865ac}.st6{fill:#225680}.st7{fill:#183f73}.st8{fill:#2764ad}.st9{opacity:.6}.st10{opacity:.2}.st11{fill:none}</style><path id="_Rettangolo_" class="st0" d="M0 .3h558v99.4H0z"/><title>Tavola disegno 1</title><g id="_Gruppo_44"><ellipse id="_Tracciato_" class="st1" cx="38.1" cy="59.4" rx="24.1" ry="6.1"/><ellipse id="_Tracciato_2" class="st1" cx="46.5" cy="53.3" rx="24.1" ry="6.1"/><ellipse id="_Tracciato_3" class="st1" cx="56.6" cy="58.7" rx="24.1" ry="6.1"/><ellipse id="_Tracciato_4" class="st1" cx="54.2" cy="62.6" rx="24.1" ry="6.1"/></g><path class="st2" d="M122.1 61.7l-7.2-.1s.1-4.1 0-21.8v-1.2c0-10.1 8.2-18.3 18.3-18.3h28v7.2h-28c-6.1 0-11.1 5-11.1 11.1V39.8c.1 17.8 0 21.8 0 21.9z" id="_Gruppo_45"/><path class="st2" d="M109.2 80.2s-.1-4.1 0-21.9v-1.2c0-7.3-5.9-13.3-13.3-13.3h-.1v-2.9c8.9 0 16.1 7.2 16.1 16.1v1.2c-.1 17.8 0 21.8 0 21.9l-2.7.1z" id="_Gruppo_46"/><path class="st2" d="M121.2 36.3h28v7.2h-28z" id="_Gruppo_47"/><path class="st3" d="M119.5 61.4h-.9v-2-2c0-5 4-9 9-9h2.3c4.5 0 8.2-3.7 8.2-8.2V17.6h.9v22.5c0 5-4 9-9 9h-2.3c-4.5 0-8.2 3.7-8.2 8.2v4.1z" id="_Gruppo_48"/><path class="st4" d="M110.8 64.7h-.6V18.6c0-4.2-3.4-7.6-7.6-7.6h-.6v-.6h.6c4.5 0 8.1 3.7 8.1 8.1l.1 46.2z" id="_Gruppo_49"/><path class="st2" d="M160 13l13.1 10.9L160 34.8z" id="_Gruppo_50"/><path class="st2" d="M147.1 33.5l9.8 6-9.8 5.9z" id="_Gruppo_51"/><path class="st3" d="M136.3 17.8l2.3-3.8 2.3 3.8z" id="_Gruppo_52"/><path class="st2" d="M97.5 48.3l-9.8-5.9 9.8-6z" id="_Gruppo_53"/><path class="st4" d="M101.8 12.8l-3.6-2.2 3.6-2.1z" id="_Gruppo_54"/><path class="st1" d="M160.3 49.8l3.5 2.2-3.5 2.1z" id="_Gruppo_55"/><g id="_Gruppo_56"><path class="st4" d="M137.7 60.1l1.9-1.2-.4-1.7H137c-.4-.8-.9-1.4-1.6-2l.6-2.2-1.5-.9-1.6 1.5c-.8-.3-1.7-.4-2.6-.3l-1.2-2-1.7.4V54c-.8.4-1.4.9-2 1.6l-2.2-.6-.9 1.5 1.5 1.7c-.3.8-.4 1.7-.3 2.6l-2 1.2.4 1.7h2.3c.4.8 1 1.5 1.6 2.1l-.6 2.2 1.5.9 1.6-1.6c.8.3 1.7.4 2.6.3l1.1 1.9 1.7-.4.1-2.3c.8-.4 1.4-.9 2-1.6l2.2.6.9-1.5-1.6-1.6c.4-.8.5-1.7.4-2.6z" id="_Gruppo_57"/><ellipse transform="rotate(-4.62 130.587 60.462) scale(1.00005)" class="st5" cx="130.6" cy="60.5" rx="4.2" ry="4.2" id="_Gruppo_58"/><circle class="st6" cx="130.6" cy="60.5" r="1.9" id="_Gruppo_59"/></g><g id="_Gruppo_60"><path class="st7" d="M122.7 57.5l1.1-.9-.4-1-1.4.2c-.3-.4-.7-.8-1.1-1.1l.2-1.4-1-.4-.8 1.1c-.5-.1-1.1-.1-1.6 0l-.9-1.1-1 .4.2 1.3c-.4.3-.8.7-1.1 1.2l-1.4-.2-.4 1 1.1.8c-.1.5-.1 1.1 0 1.6l-1.1.9.4 1 1.4-.2c.3.4.7.8 1.1 1.1l-.1 1.4 1 .4.8-1.1c.5.1 1.1.1 1.6 0l.9 1.1 1-.4-.2-1.4c.4-.3.8-.7 1.1-1.2l1.4.2.4-1-1.1-.8c0-.4 0-.9-.1-1.5z" id="_Gruppo_61"/><ellipse transform="rotate(-12.683 118.43 58.368)" class="st4" cx="118.4" cy="58.4" rx="2.6" ry="2.5" id="_Gruppo_62"/><ellipse transform="rotate(-8.069 118.407 58.388)" class="st7" cx="118.4" cy="58.4" rx="1.2" ry="1.2" id="_Gruppo_63"/></g><g id="_Gruppo_64"><path class="st3" d="M138.6 23.1c-4.3 0-7.8-3.5-7.8-7.8s3.5-7.8 7.8-7.8 7.8 3.5 7.8 7.8-3.5 7.8-7.8 7.8zm0-15.4c-4.2 0-7.5 3.4-7.5 7.5s3.4 7.5 7.5 7.5 7.5-3.4 7.5-7.5-3.3-7.5-7.5-7.5z" id="_Gruppo_65"/><path class="st3" d="M138.6 21.7c-3.5 0-6.4-2.9-6.4-6.4s2.9-6.4 6.4-6.4 6.4 2.9 6.4 6.4-2.8 6.4-6.4 6.4zm0-12.6c-3.4 0-6.1 2.7-6.1 6.1s2.7 6.1 6.1 6.1c3.4 0 6.1-2.7 6.1-6.1 0-3.3-2.7-6.1-6.1-6.1z" id="_Gruppo_66"/><path class="st3" d="M138.6 20c-2.6 0-4.8-2.1-4.8-4.8s2.1-4.8 4.8-4.8 4.8 2.1 4.8 4.8c0 2.7-2.2 4.8-4.8 4.8zm0-9.2c-2.5 0-4.5 2-4.5 4.5s2 4.5 4.5 4.5 4.5-2 4.5-4.5-2-4.5-4.5-4.5z" id="_Gruppo_67"/><path class="st3" d="M138.6 18.4c-1.8 0-3.2-1.4-3.2-3.2s1.4-3.2 3.2-3.2c1.8 0 3.2 1.4 3.2 3.2 0 1.8-1.4 3.2-3.2 3.2zm0-6c-1.6 0-2.9 1.3-2.9 2.9s1.3 2.9 2.9 2.9c1.6 0 2.9-1.3 2.9-2.9s-1.3-2.9-2.9-2.9z" id="_Gruppo_68"/></g><g id="_Gruppo_69"><circle class="st8" cx="92.1" cy="10.3" r="4.9" id="_Gruppo_70"/><g id="_Gruppo_71"><circle class="st1" cx="92.1" cy="7.6" r=".9" id="_Gruppo_72"/><path class="st1" d="M93.1 12V9.4L95.8 7l-.5-.5-2.6 2.3h-1.1L89 6.5l-.5.5 2.6 2.4V12" id="_Gruppo_73"/><path class="st1" d="M94.1 15l-.7.3-1.2-3.4h.8z" id="_Gruppo_74"/></g><path class="st1" d="M90.1 15l.7.3 1.3-3.4h-.9z" id="_Gruppo_75"/></g><path class="st7" d="M132.4 37.5c.1-.5.1-1.1 0-1.7l1.1-.9-.4-1-1.4.2c-.3-.5-.7-.9-1.2-1.2l.2-1.5-1-.4-.9 1.2c-.6-.1-1.1-.1-1.7 0l-.9-1.1-1 .4.2 1.4c-.5.3-.8.7-1.2 1.2l-1.5-.2-.4 1 1.2.9c-.1.5-.1 1.1 0 1.7l-1.1.9.4 1 1.4-.2c.3.5.7.9 1.2 1.2l-.2 1.5 1 .4.9-1.2c.6.1 1.1.1 1.7 0l.9 1.1 1-.4-.2-1.4c.5-.3.9-.7 1.2-1.2l1.4.2.4-1-1.1-.9zm-3.8 2.5c-1.8.4-3.7-.7-4.1-2.6-.4-1.8.7-3.7 2.6-4.1 1.8-.4 3.7.7 4.1 2.6.3 1.9-.8 3.7-2.6 4.1z" id="_Gruppo_76"/><path class="st7" d="M118.5 64.3c-3.3 0-5.9-2.7-5.9-5.9 0-.8.2-1.6.5-2.3l.1.1-.1-.1 9.5-22.1c1.3-3 4.8-4.4 7.8-3.1 3 1.3 4.4 4.8 3.1 7.8L124 60.8c-.6 1.4-1.8 2.6-3.2 3.1-.8.2-1.6.4-2.3.4zm9.5-33.7c-2.2 0-4.2 1.3-5.1 3.4l-9.6 22.1c-1.2 2.8.1 6.1 2.9 7.4 2.8 1.2 6.1-.1 7.4-2.9l9.5-22.1c1.2-2.8-.1-6.1-2.9-7.4-.6-.3-1.4-.5-2.2-.5z" id="_Gruppo_77"/><path class="st2" d="M103.6 61.9c-.6 1.3-.9 2.7-1 4.1-.2 2.1-.1 4.2.4 6.2.2 1.8 4.7 16.8 4.7 16.8l-2.2 10.1h24.7l.4-4.7 9.9 1.1.7-12.5 4.7-.2-4.9-12.5v-7.1c-.1-.4-.2-.8-.3-1.3h-37.1z" id="_Gruppo_78"/><path class="st1" d="M81.7 46.1h2.7v.5h-2.7z" id="_Gruppo_79"/><path class="st4" d="M81.3 43.1c-.9-.6-1.5-1.7-1.6-2.8 0-1.8 1.5-3.3 3.3-3.3 1.8 0 3.3 1.5 3.3 3.3 0 1.1-.5 2.1-1.4 2.7-.5.5-.7 1.1-.6 1.7h-2.7c.1 0 .4-1.1-.3-1.6z" id="_Gruppo_80"/><path class="st2" d="M81.8 45h2.6l-2.7.7h2.7" id="_Gruppo_81"/><path transform="rotate(-48.761 85.872 36.563)" class="st1" d="M85.3 36.4h1.2v.3h-1.2z" id="_Gruppo_82"/><path transform="rotate(-75.689 84.222 35.852)" class="st1" d="M83.6 35.7h1.2v.3h-1.2z" id="_Gruppo_83"/><path transform="rotate(-15.592 82.17 35.847)" class="st1" d="M82 35.3h.3v1.2H82z" id="_Gruppo_84"/><path transform="rotate(-39.077 80.408 36.563)" class="st1" d="M80.3 36h.3v1.2h-.3z" id="_Gruppo_85"/><path transform="rotate(-27.631 86.937 37.98)" class="st1" d="M86.4 37.8h1.2v.3h-1.2z" id="_Gruppo_86"/><path transform="rotate(-52.157 79.06 37.71)" class="st1" d="M78.9 37.1h.3v1.2h-.3z" id="_Gruppo_87"/><path class="st1" d="M83.4 43.8h-.3c0-.1.1-2.5 1.1-3.3h-2.3c.4.4.8 1.2.9 3.3h-.3c0-2-.5-2.8-.8-3.1-.1-.1-.2-.2-.4-.2v-.3h3.6v.3c-1.4.3-1.4 3.3-1.5 3.3z" id="_Gruppo_88"/><path class="st8" d="M172.6 54.4v-5c.8-.3 1.3-1.2 1-2-.1-.4-.4-.7-.7-.9v1.4h-1.6v-1.4c-.8.4-1.1 1.4-.6 2.2.2.3.5.6.9.7v5c-.8.3-1.3 1.2-1 2.1.3.8 1.2 1.3 2.1 1s1.3-1.2 1-2.1c-.3-.5-.7-.8-1.1-1zm0 2.4h-1l-.5-.9.5-.9h1l.5.9-.5.9z" id="_Gruppo_89"/><g id="_Gruppo_90"><path class="st8" d="M166.9 52.5h1.2c.4 0 .6.3.6.6v3.7c0 .4-.3.6-.6.6h-1.2c-.4 0-.6-.3-.6-.6v-3.7c-.1-.3.2-.6.6-.6z" id="_Gruppo_91"/><path class="st1" d="M168 53.2c.2 0 .3.1.3.3v2.8c0 .2-.1.3-.3.3-.2 0-.3-.1-.3-.3v-2.8c0-.1.1-.3.3-.3z" id="_Gruppo_92"/><path class="st1" d="M167.3 52.7c.2 0 .3.1.3.3v2.8c0 .2-.1.3-.3.3-.2 0-.3-.1-.3-.3V53c0-.2.1-.3.3-.3z" id="_Gruppo_93"/><path class="st8" d="M168 52.3c0-.1.1-.2.2-.3h-1.5c.1 0 .2.2.2.3 0 .1-.1.2-.2.2h1.5c-.1 0-.2-.1-.2-.2z" id="_Gruppo_94"/><path class="st8" d="M166.7 51.4h1.5c.2 0 .3.1.3.3 0 .2-.1.3-.3.3h-1.5c-.2 0-.3-.1-.3-.3 0-.2.2-.3.3-.3z" id="_Gruppo_95"/><path class="st8" d="M167.2 46.5l.1 1.2v3.7h.4v-3.7l.2-1.2z" id="_Gruppo_96"/></g><path class="st7" d="M161.5 52.1h-1.2v-.3h1.2v.3zm-2.3 0H158v-.3h1.2v.3zm-2.3 0h-1.2v-.3h1.2v.3zm-2.3 0h-1.2v-.3h1.2v.3zm-2.3 0h-1.2v-.3h1.2v.3zm-2.3 0h-1.2v-.3h1.1l.1.3zm-2.3 0h-1.2v-.3h1.2v.3zm-2.3 0h-1.2v-.3h1.2v.3zm-2.3 0H142v-.3h1.2l-.1.3zm-2.4 0c-.4 0-.8 0-1.2-.1v-.3c.4 0 .8.1 1.1.1l.1.3zm-2.3-.2c-.4-.1-.8-.2-1.1-.3l.1-.3c.4.1.7.2 1.1.3l-.1.3zm-2.2-.7c-.4-.2-.7-.4-1-.6l.2-.2c.3.2.6.4 1 .6l-.2.2zm-1.9-1.4c-.2-.3-.4-.6-.6-1l.3-.1c.1.4.3.7.5 1l-.2.1zm-.8-2.2c0-.2 0-.5.1-.7v-.5h.3v.5c0 .2-.1.4-.1.6l-.3.1zm.5-2.3h-.3c0-.3 0-.7.1-1.2h.3c-.1.5-.1.8-.1 1.2zm.1-2.3h-.3v-1.2h.3V43zm0-2.3h-.3v-1.2h.3v1.2zm-.3-2.3v-1.2h.3v1.2h-.3zm0-2.3c0-.4-.1-.8-.2-1.1l.3-.1c.1.4.1.8.2 1.2h-.3zm-.5-2.2c-.1-.4-.3-.7-.6-1l.2-.2c.2.3.4.6.6 1l-.2.2zm-1.3-1.8c-.3-.3-.6-.5-.9-.7l.2-.2c.3.2.6.4.9.7l-.2.2zm-1.9-1.2c-.3-.1-.7-.3-1.1-.4l.1-.3c.4.1.7.2 1.1.4l-.1.3zm-2.2-.6c-.4-.1-.8-.1-1.1-.1v-.3c.4 0 .8.1 1.2.1l-.1.3zm-3.4-.2v-.3h1.1v.3h-1.1zm-1.2 0h-1.1v-.3h1.2l-.1.3zm-2.3 0h-1.1v-.3h1.2l-.1.3zm-2.3 0h-1.1v-.3h1.2l-.1.3zm-2.3 0h-1.1v-.3h1.2l-.1.3zm-2.3 0H113v-.3h1.2l-.1.3zm-2.3 0h-1.1v-.3h1.2l-.1.3z" id="_Gruppo_97"/><g id="_Gruppo_98"><ellipse id="_Tracciato_5" class="st1" cx="326.9" cy="44.6" rx="11.9" ry="4.5"/><ellipse id="_Tracciato_6" class="st1" cx="331" cy="40.1" rx="11.9" ry="4.5"/><ellipse id="_Tracciato_7" class="st1" cx="336" cy="44" rx="11.9" ry="4.5"/><ellipse id="_Tracciato_8" class="st1" cx="334.8" cy="46.9" rx="11.9" ry="4.5"/></g><g id="_Gruppo_99"><ellipse id="_Tracciato_9" class="st1" cx="196.1" cy="76.3" rx="11.9" ry="4.5"/><ellipse id="_Tracciato_10" class="st1" cx="200.3" cy="71.8" rx="11.9" ry="4.5"/><ellipse id="_Tracciato_11" class="st1" cx="205.3" cy="75.8" rx="11.9" ry="4.5"/><ellipse id="_Tracciato_12" class="st1" cx="204.1" cy="78.6" rx="11.9" ry="4.5"/></g><g class="st9"><g id="_Gruppo_101"><ellipse id="_Tracciato_17" class="st1" cx="234.3" cy="23.3" rx="21.1" ry="4.9"/><ellipse id="_Tracciato_18" class="st1" cx="241.6" cy="18.4" rx="21.1" ry="4.9"/><ellipse id="_Tracciato_19" class="st1" cx="250.4" cy="22.7" rx="21.1" ry="4.9"/><ellipse id="_Tracciato_20" class="st1" cx="248.3" cy="25.8" rx="21.1" ry="4.9"/></g><g id="_Gruppo_102"><ellipse id="_Tracciato_21" class="st1" cx="189.9" cy="34.4" rx="15.3" ry="9.7"/><ellipse id="_Tracciato_22" class="st1" cx="201.7" cy="24.6" rx="18.3" ry="9.7"/><ellipse id="_Tracciato_23" class="st1" cx="233.8" cy="33.2" rx="16.7" ry="9.7"/><ellipse id="_Tracciato_24" class="st1" cx="228.2" cy="39.5" rx="14.2" ry="9.7"/><ellipse id="_Tracciato_25" class="st1" cx="214" cy="33.2" rx="14.2" ry="9.7"/><ellipse id="_Tracciato_26" class="st1" cx="208.5" cy="40.3" rx="14.2" ry="9.7"/></g></g><g id="_Gruppo_153"><ellipse id="_Tracciato_33" class="st1" cx="478.6" cy="58.9" rx="15" ry="9.5"/><ellipse id="_Tracciato_34" class="st1" cx="467.1" cy="68.4" rx="17.9" ry="9.5"/><ellipse id="_Tracciato_35" class="st1" cx="435.6" cy="60.1" rx="16.4" ry="9.5"/><ellipse id="_Tracciato_36" class="st1" cx="441.1" cy="53.9" rx="13.9" ry="9.5"/><ellipse id="_Tracciato_37" class="st1" cx="455" cy="60.1" rx="13.9" ry="9.5"/><ellipse id="_Tracciato_38" class="st1" cx="460.3" cy="53.1" rx="13.9" ry="9.5"/></g><g class="st10"><path class="st11" d="M342.2 96.2c-.3 1.1-.5 2.3-.6 3.4h4.2c0-.2 0-.4.1-.6l-3.7-2.8zM348.1 93.4c.1-.1.1-.2.2-.3V81.5l-5.5 12.7c-.2.4-.3.8-.4 1.3l1-2.6 4.7.5zM374.6 98.9c0 .3.1.5.1.8h2.1l-1.4-1.4-.8.6zM348.3 79.1c0-10.3 0-23.5-.1-40.4v-4.1c0-12.7 3.9-24.5 10.5-34.3h-24.5v75.6c2.8 6.6 4.3 13.8 4.3 21.3v2.4h1.9c.2-2 .7-3.9 1.5-5.8l6.4-14.7zm1.4-73.7h3.9v1h-3.9v-1zm-11.5.9h-3.9v-1h3.9v1zm3.6-.9h3.9l.2 1h-4.1v-1zM372.7 77.6v15.6l2.4-.3 1.1-1.9 7.4 1.9c.6-.7 1.3-1.3 1.9-1.9l8.9-20.7h-3.2c-7.1.1-13.6 2.8-18.5 7.3zM289.2 52.7v14.9l-33-20.1 33-20.1v15.5c18.7 1.8 34.6 13.1 43 28.9V.3h-85.7v39.9h.1l.1 1c-.1 0-.1 0-.2.1v58.4h82.4v-2.4c0-23.1-17.3-42.1-39.7-44.6zm-40.8-23.6l2.6-2.9.7.6-2.6 2.9-.7-.6zm3.7 4.9l-.5-.9 3.5-1.8.5.9-3.5 1.8zM403 25.8c-1.4-6.2-7.5-10.1-13.7-8.7-4.9 1.1-8.3 5.1-8.9 9.8h22.8c0-.3-.1-.7-.2-1.1zM372.7 73.8c5.1-3.9 11.6-6.3 18.5-6.3h4.5l6.9-16.1h-30c.1 8.5.1 15.9.1 22.4z"/><path class="st11" d="M379.2 19.8c1.1-1.6 2.4-2.9 3.9-4l-.6-4.9 3.3-1.5 3.1 3.9c1.9-.3 3.8-.3 5.6 0l3.1-3.9 3.6 1.4-.5 4.9c1.6 1.1 2.9 2.4 4 3.9l4.9-.6 1.2 2.7c-1.5-5.3-5.3-9.9-10.7-12.2-2.4-1-4.9-1.6-7.5-1.6-4.9 0-9.4 1.9-12.9 5-1.4 2-2.7 4.2-3.7 6.5l3.2.4zM407.4 27h4.1c0-1.5-.2-3-.5-4.5l-3.7 3c0 .5.1 1 .1 1.5zM374.3 23.8c-.3 1-.6 2.1-.8 3.2h3.2c0-.4.1-.8.2-1.2l-2.6-2z"/><path class="st11" d="M382.8 9.1c2.3-1.3 4.8-2.2 7.5-2.5-.6-.1-1.3-.1-1.9-.2v-1c1.3.1 2.6.3 3.9.5v.5c2.6-.1 5.3.4 7.8 1.4 3.9 1.5 7 4.2 9.2 7.4.8 1.1 1.4 2.2 2 3.5l-.1.1c.5 1.2.9 2.5 1.1 3.8h.2c.3 1.3.5 2.6.5 3.9h-.4v.5h14.1V.3h-31.5c-4.6 2.1-8.9 5.1-12.4 8.8zM390.5 87.6l.1-5.8-3.4 7.8c1-.7 2.1-1.4 3.3-2zM411.2 64.6c0-.6.1-1.2.2-1.8 0 0 0-.6.1-1.5h1c-.1 1.1-.1 1.7-.1 1.7-.1.4-.1.8-.2 1.2 5.3-2.8 9.5-7.3 12.1-12.8h-20.5l-6.9 16.1h2.3c4.3-.1 8.3-1.2 12-2.9zm.7-11.2h1c0 1.5-.1 2.8-.1 3.9v.1h-1c0-1.2.1-2.5.1-4zM539.6 90.4l-1.6 2.9 1.6 2.9h3.4l1.7-2.9-1.7-2.9z"/><path class="st11" d="M526.4.3l-25.9 21.5V.3h-70.8V27h27.4v-9.3l33 20.1-33 20.1v-6.5h-29.7c-4.6 11.1-15.5 18.9-28.2 19l-3.6.1-4 9.3 4.7-1.3 3.9 6.6c2.9-.2 5.9.2 8.7 1.1l5.5-5.3 5 2.9-1.9 7.4c2.2 1.9 3.9 4.3 5.3 6.9l7.6.1.4 1.5h126.8V.3h-31.2zM413.8 72.6c-.8-1.1-1.5-2.3-1.9-3.6l.9-.3c.4 1.2 1 2.3 1.8 3.3l-.8.6zm6.9 4.8c-1.2-.5-2.4-1.2-3.4-2l.6-.8c1 .7 2.1 1.4 3.3 1.9l-.5.9zm7.5 2.2c-1.3-.2-2.6-.5-3.8-.9l.3-.9c1.2.4 2.5.6 3.7.9l-.2.9zm7.7.9c-1.3 0-2.7-.1-3.9-.3l.1-1c1.2.1 2.5.2 3.8.3v1zm7.8 0h-3.9v-1h3.9v1zm7.8 0h-3.9v-1h3.9v1zm7.7 0h-3.9v-1h3.9v1zm7.7 0H463v-1h3.9v1zm3.7 0v-1h3.9l.2 1h-4.1zm7.7 0v-1h3.9l.2 1h-4.1zm7.7 0v-1h3.9l.2 1H486zm11.8 0h-3.9v-1h3.9v1zm29.4-18.9l-.5 4v12.5h-1.5V65.6l-.4-4h2.4zm-3.8 16.5h5.1c.5 0 1 .4 1 1 0 .5-.4 1-1 1h-5.1c-.5 0-1-.4-1-1s.4-1 1-1zm-21.7 9.1V72.8l11.9 7.2-11.9 7.2zm28.4 9.1c0 1.2-1 2.2-2.2 2.2h-4.1c-1.2 0-2.2-1-2.2-2.2l.1-12.3c0-1.1.8-2 1.9-2.1.2-.1.4-.3.5-.6.1-.5-.1-1-.6-1.2h5c-.4.1-.7.5-.7.9s.3.7.6.8c1 .2 1.8 1.1 1.8 2.2l-.1 12.3zm13 2.1c-2.8 1-5.9-.4-7-3.2-1-2.8.4-5.9 3.2-7V71.3c-1.2-.4-2.3-1.3-2.9-2.5-1.4-2.6-.5-5.9 2.1-7.4v4.8h5.2v-4.8c1.1.6 2 1.7 2.5 2.9 1 2.8-.4 5.9-3.2 7v16.9c1.5.5 2.7 1.7 3.2 3.2 1.2 2.8-.3 5.9-3.1 7z"/><path class="st2" d="M348.2 38.6v.1c.1 16.9.1 30.1.1 40.4l21.1-48.8V27h1.4l3.4-7.9c1.7-4.4 4.8-7.8 8.6-10 3.5-3.7 7.7-6.7 12.4-8.8h-36.6c-6.6 9.8-10.5 21.6-10.5 34.3v4zm32.5-33.2h3.9v1h-3.9v-1zm-7.8 0h3.9v1h-3.9v-1zm-7.7 0h3.9v1h-3.9v-1zm-7.8 0h3.9v1h-3.9v-1z"/><path class="st2" d="M374.3 23.8l-.8-.7-1.6 3.8h1.7c.1-1 .4-2.1.7-3.1zM348.3 93.1c1-1.4 2.2-2.6 3.5-3.5l-.6-4.6 3.3-1.4 2.9 3.7c1.7-.3 3.5-.3 5.2 0 2-5.4 5.5-10 10-13.5V51.3h-3.3V32.7l-21.1 48.9c.1 4.4.1 8.2.1 11.5zM379.7 13c-1.9 1.8-3.5 3.9-4.5 6.4l.8.1c1-2.4 2.2-4.5 3.7-6.5zM367.3 84.2l1.6.7-.5 4.6c1.5 1 2.8 2.3 3.8 3.7l.4-.1V77.5c-2 2-3.8 4.2-5.3 6.7zM334.2 75.9v23.7h4.3v-2.4c0-7.6-1.5-14.8-4.3-21.3zM289.2 42.9v9.7c22.4 2.6 39.7 21.6 39.7 44.6v2.4h3.3V71.8c-8.3-15.8-24.3-27.1-43-28.9zM427.4 51.3h29.7V27h-27.4v12.8c0 4-.8 7.9-2.3 11.5zM394.4 39.6c-.1 0-.1-.1 0 0 5.8-1.3 9.6-6.8 8.9-12.6h-22.8c-.2 1.3-.1 2.6.2 3.9 1.3 6.2 7.5 10.1 13.7 8.7zM407.2 31.1l3 2.4c.8-2.2 1.2-4.4 1.2-6.5h-4.1c.3 1.3.2 2.7-.1 4.1zM426.8 39.8V27h-14.1c0 1.1-.2 2.2-.4 3.4h.9v3.9h-1v-3.4c-.2 1-.5 1.9-.9 2.9-.1.4-.3.7-.5 1.1v.1l-1.1 2.8h-.1l-5.9 13.7h20.5c1.7-3.7 2.6-7.6 2.6-11.7zM413 49.5v.2h-1c0-1.2 0-2.5.1-3.9h1c0 1.2-.1 2.5-.1 3.7zm.1-7.6h-1V38h1V41.9zM369.4 30.3l1.4-3.3h-1.4z"/><path class="st2" d="M372.7 51.3h30l5.9-13.8-3.8-.4c-1.1 1.6-2.4 3-4 4.1l.6 4.9-3.4 1.5-3.1-3.8c-1.9.3-3.8.3-5.7 0l-3 3.9-3.5-1.4.5-4.9c-1.6-1.1-2.9-2.4-4-3.9l-4.9.6-1.5-3.4 3.9-3.1c-.3-1.5-.3-3-.2-4.4h-4.9l-2.5 5.7v18.6h3.6z"/><path class="st3" d="M372.7 73.8c-4.5 3.4-8 8.1-10 13.5h.1l2.9-3.7 1.7.7c1.4-2.5 3.3-4.7 5.4-6.7 4.9-4.5 11.4-7.2 18.5-7.2h3.2l1.3-2.9h-4.5c-7.1-.1-13.5 2.3-18.6 6.3zM426.8 39.8c0 4.1-.9 8-2.6 11.6-2.5 5.5-6.8 10-12.1 12.8v.9l-1 .1v-.5c-3.6 1.8-7.7 2.8-12 2.8h-2.3l-1.3 2.9 3.6-.1c12.8 0 23.7-7.8 28.2-19 1.5-3.6 2.3-7.5 2.3-11.6V.3h-2.9v39.5z"/><path class="st4" d="M334.2.3h-2v99.3h2V75.9z"/><path class="st2" d="M526.4.3h-25.9v21.6zM457.1 57.8l33-20.1-33-20v33.6zM256.2 47.5l33 20.1V27.4z"/><path class="st1" d="M501.7 79.5h3.8v1h-3.8v6.7l11.9-7.2-11.9-7.3z"/><path class="st4" d="M383.6 92.9l-7.4-1.9-1.1 1.9 1.8-.2 1.4 3.3-2.8 2.3 1.4 1.4h5l3.7-8.6c-.7.5-1.4 1.1-2 1.8zM422.7 98c-1.3-2.6-3.1-4.9-5.3-6.9l1.9-7.4-5-2.9-5.5 5.3c-2.8-.9-5.7-1.3-8.7-1.1l-3.9-6.6-4.7 1.3-.9 2.2-.1 5.8c-1.2.6-2.3 1.3-3.3 2.1l-4.3 10h7.5c2.3-2.8 5.7-4.6 9.6-5 4.7-.4 9.1 1.6 11.9 5h18.9l-.4-1.5-7.7-.3z"/><path class="st5" d="M400 94.7c-3.9.3-7.3 2.2-9.6 5h21.5c-2.8-3.4-7.2-5.4-11.9-5z"/><path class="st7" d="M375.5 98.2l2.8-2.3-1.4-3.3-1.8.2-2.4.3-.4.1c-1-1.5-2.3-2.7-3.8-3.7l.5-4.6-1.6-.7-1.7-.7-2.9 3.7h-.1c-1.7-.3-3.5-.3-5.2 0l-2.9-3.7-3.3 1.4.6 4.6c-1.4 1-2.6 2.2-3.5 3.5-.1.1-.1.2-.2.3l-4.6-.5-1 2.6c-.1.2-.2.5-.2.7l3.7 2.8c0 .2-.1.4-.1.6h5.9c.7-3.1 3.2-5.7 6.5-6.4 4.6-1 9.2 1.8 10.3 6.4h6.3c0-.3-.1-.5-.1-.8l.6-.5z"/><path class="st4" d="M358.2 93.2c-3.3.7-5.7 3.3-6.5 6.4h4.9c.6-1 1.6-1.8 2.9-2 1.7-.2 3.2.6 4 2h5c-1.1-4.6-5.7-7.4-10.3-6.4z"/><path class="st7" d="M359.5 97.7c-1.3.2-2.3.9-2.9 2h6.9c-.8-1.4-2.4-2.3-4-2zM376.8 25.8c-.1.4-.1.8-.2 1.2-.2 1.5-.1 3 .2 4.4l-3.9 3.1 1.5 3.4 4.9-.6c1.1 1.5 2.4 2.9 4 3.9l-.5 4.9 3.5 1.4 3-3.9c1.9.3 3.8.3 5.7 0l3.1 3.8 3.4-1.5-.6-4.9c1.6-1.1 2.9-2.5 4-4.1l3.8.4 1.3-3.1.3-.9-3-2.4c.3-1.4.3-2.7.2-4.1 0-.5-.1-1-.2-1.5l3.7-3c-.1-.3-.1-.5-.2-.8l-1.2-2.7-4.9.6c-1.1-1.5-2.4-2.9-4-3.9l.5-4.9-3.6-1.4-3.1 3.9c-1.9-.3-3.8-.3-5.6 0l-3.1-3.9-3.3 1.5.6 4.9c-1.5 1.1-2.9 2.4-3.9 4l-3.3-.4-.8-.1v.1l-1.6 3.8.8.7 2.5 2.1zm3.6 1.2c.6-4.7 4-8.7 8.9-9.8 6.2-1.4 12.3 2.5 13.7 8.7.1.4.1.8.2 1.1.7 5.8-3.1 11.3-8.9 12.6-6.2 1.4-12.3-2.5-13.7-8.7-.3-1.3-.3-2.7-.2-3.9zM410.8 34.9l-1.2 2.7h.1z"/><path class="st7" d="M390.6 81.8l.9-2.2 4-9.3 1.3-2.9 6.9-16.1 5.9-13.7 1.2-2.7v-.1c.2-.3.3-.7.5-1.1.4-1 .7-1.9.9-2.9v-.5h.1c.2-1.1.3-2.2.4-3.4v-.5h-.6c-.1-1.3-.2-2.5-.5-3.8l.7-.2c-.3-1.3-.6-2.6-1.1-3.8l-.8.3c-.5-1.2-1.1-2.3-1.9-3.3l.7-.5c-2.2-3.2-5.3-5.9-9.2-7.4-2.6-1-5.2-1.5-7.8-1.4v.4c-.6-.1-1.3-.2-1.9-.3-2.6.3-5.2 1.2-7.5 2.5-3.8 2.2-6.9 5.6-8.6 10l-3.4 7.9-1.4 3.3-21.1 48.8-6.3 15c-.8 1.8-1.3 3.8-1.5 5.8h1.1c.1-1.1.3-2.3.6-3.4.1-.3.2-.5.2-.7.1-.4.3-.8.4-1.3l5.5-12.7 21.1-48.9 2.5-5.7 1.6-3.8 1.6-3.8v-.1c1.1-2.5 2.6-4.6 4.5-6.4 3.4-3.2 8-5 12.9-5 2.6 0 5.2.5 7.5 1.6 5.4 2.4 9.2 6.9 10.7 12.2.1.3.1.5.2.8.3 1.5.5 3 .5 4.5 0 2.2-.4 4.4-1.2 6.5l-.3.9-1.3 3.1-5.9 13.8-6.9 16.1-1.3 2.9-9 20.7-3.7 8.6h1.1l4.3-10 3.4-7.8zm9-72.9c-1.2-.5-2.4-.9-3.6-1.3l.3-.9c1.3.3 2.5.8 3.7 1.3l-.4.9zm6.5 4c-1-.9-2-1.6-3.1-2.3l.5-.8c1.1.7 2.2 1.5 3.2 2.4l-.6.7z"/><path transform="rotate(-48.761 250 27.934)" class="st1" d="M248.1 27.5h3.9v1h-3.9z"/><path transform="rotate(-27.631 253.608 32.675)" class="st1" d="M251.7 32.2h3.9v1h-3.9z"/><path class="st1" d="M246.7 40.3l-.1 1c.1 0 .1 0 .2-.1l-.1-.9z"/><path class="st8" d="M543.1 88.2V71.3c2.8-1 4.3-4.1 3.2-7-.4-1.2-1.3-2.3-2.5-2.9v4.8h-5.2v-4.8c-2.6 1.4-3.6 4.7-2.1 7.4.6 1.1 1.7 2 2.9 2.5v16.9c-2.8 1-4.3 4.1-3.2 7 1 2.8 4.1 4.3 7 3.2 2.8-1 4.3-4.1 3.2-7-.6-1.5-1.8-2.7-3.3-3.2zm-.1 8h-3.4l-1.7-2.9 1.7-2.9h3.4l1.7 2.9-1.7 2.9zM528.3 81.8c.1 0 .1.1.2.1l-.2-.1-4.7.1h-.2c.1 0 .1-.1.1-.1-1.1.2-1.9 1-1.9 2.1l-.1 12.3c0 1.2 1 2.2 2.2 2.2h4.1c1.2 0 2.2-1 2.2-2.2l.1-12.3c0-1-.8-1.9-1.8-2.1zm-3.1 12.8c0 .5-.4.9-.9.9s-.9-.4-.9-.9v-9.4c0-.5.4-.9.9-.9s.9.4.9.9v9.4zm3.3 0c0 .5-.4.9-.9.9s-.9-.4-.9-.9v-9.4c0-.5.4-.9.9-.9s.9.4.9.9v9.4z"/><path class="st1" d="M527.7 84.3c-.5 0-.9.4-.9.9v9.4c0 .5.4.9.9.9s.9-.4.9-.9v-9.4c0-.5-.4-.9-.9-.9zM524.4 84.3c-.5 0-.9.4-.9.9v9.4c0 .5.4.9.9.9s.9-.4.9-.9v-9.4c0-.5-.4-.9-.9-.9z"/><path class="st8" d="M523.6 81.9H528.5c-.1 0-.1 0-.2-.1-.3-.1-.6-.5-.6-.8 0-.4.3-.8.7-.9h-5c.5.1.8.7.6 1.2-.1.3-.3.4-.5.6-.1 0-.1.1-.1.1h.2zM523.4 80h5.1c.5 0 1-.4 1-1 0-.5-.4-1-1-1h-5.1c-.5 0-1 .4-1 1s.4 1 1 1z"/><path class="st8" d="M525.2 78l1.4.1.1-12.5.5-4h-2.4l.4 4z"/><path class="st7" d="M412.5 61.2h-1c-.1 1-.1 1.5-.1 1.5-.1.6-.2 1.2-.2 1.8v.5l1-.1V64c0-.4.1-.8.2-1.2-.1.1 0-.4.1-1.6zM412.7 57.3c.1-1.1.1-2.4.1-3.9h-1c0 1.5-.1 2.8-.2 4l1.1-.1zM486 79.5v1h4.1l-.2-1zM334.3 5.4h3.9v1h-3.9zM493.9 79.5h3.9v1h-3.9zM345.7 5.4h-3.9v.9h4.1zM455.3 79.5h3.9v1h-3.9zM411.9 69c.4 1.3 1.1 2.5 1.9 3.6l.8-.7c-.8-1-1.4-2.1-1.8-3.3l-.9.4zM388.4 5.4v1c.6 0 1.3.1 1.9.2.7.1 1.3.2 1.9.3V6c-1.1-.3-2.5-.5-3.8-.6zM417.2 75.4c1.1.8 2.2 1.4 3.4 2l.4-.9c-1.2-.5-2.2-1.2-3.3-1.9l-.5.8zM439.9 79.5h3.9v1h-3.9zM447.6 79.5h3.9v1h-3.9zM432 80.2c1.3.1 2.6.3 3.9.3v-1c-1.3 0-2.6-.1-3.8-.3l-.1 1zM424.4 78.7c1.3.4 2.5.7 3.8.9l.2-1c-1.3-.2-2.5-.5-3.7-.9l-.3 1zM349.7 5.4h3.9v1h-3.9zM463 79.5h3.9v1H463zM478.3 79.5v1h4l-.1-1zM412.5 22.5h-.2l-.7.2c.3 1.2.4 2.5.5 3.8h1c-.1-1.4-.3-2.7-.6-4zM409.4 15.2l-.8.6c.7 1 1.4 2.1 1.9 3.3l.8-.3.1-.1c-.6-1.2-1.3-2.4-2-3.5zM470.6 79.5v1h4l-.2-1zM365.2 5.4h3.9v1h-3.9zM357.4 5.4h3.9v1h-3.9zM372.9 5.4h3.9v1h-3.9zM384.5 6.3v-1h-3.9v1h3.9zM412.2 34.2h1v-3.9h-1v3.9zM412 49.7h1v-.2c0-1.2.1-2.4.1-3.7h-1c-.1 1.4-.1 2.6-.1 3.9zM412.2 38v3.9h1v-.2V38h-1zM505.5 79.5h-3.9v1h3.9zM396 7.7c1.2.3 2.4.8 3.6 1.3l.4-1c-1.2-.5-2.5-.9-3.7-1.3l-.3 1zM403 10.7c1.1.7 2.1 1.4 3.1 2.3l.6-.7c-1-.9-2-1.7-3.2-2.4l-.5.8z"/></g></svg>