<svg xmlns="http://www.w3.org/2000/svg" width="135" height="150" viewBox="0 0 135 150"><path fill-rule="evenodd" clip-rule="evenodd" fill="#06C" d="M102.538 100.415c.671 0 1.612.34 1.376.904-.234.568-.501 1.521-1.031 1.585-.529.06-1.56-.688-1.56-1.354s.545-1.135 1.215-1.135zM44.217 118.689c.737.368 1.474.368 2.211 0l-.553-.87-1.263-1.104c-.685-.368-1.238-.027-1.659 1.024l1.264.95z"/><path fill-rule="evenodd" clip-rule="evenodd" fill="#6F7072" d="M81.96 144.271c-.21.368-.079.736.396 1.104.474.371.867.448 1.183.238l-1.579-1.342z"/><path fill-rule="evenodd" clip-rule="evenodd" fill="#FFF" d="M133.047 71.312c.421-2.842.132-4.632-.867-5.369-1.054-.737-2.344-.5-3.869.71-.896-.474-2.105-.026-3.633 1.342.264-.684.289-1.289.079-1.815 1.369-.632 2.251-1.33 2.646-2.092.395-.763.593-1.961.593-3.593.157-1 1.078-2.79 2.763-5.369 1.157-2.58.342-3.475-2.447-2.685 1.525-1.369 2.289-2.554 2.289-3.554.105-.948-.289-2.158-1.185-3.632-.368-.842-.921-1-1.658-.474.263-.526.408-1.158.435-1.895.026-.736-.461-2.29-1.461-4.659-.157-3.105-.896-4.395-2.21-3.869a12.56 12.56 0 0 0-1.58-4.658c-1.264-1.895-2.263-2.396-2.999-1.5-2.055-3.053-3.977-4.316-5.765-3.791-.054-1.315-.501-2.5-1.343-3.552-.474-2-1.054-3.395-1.737-4.186-.948-.368-1.605.159-1.974 1.58-.158-1.158-.526-2.369-1.106-3.633-.579-1.263-1.499-1.92-2.763-1.973a2.36 2.36 0 0 0-1.344.237c-.841-.527-1.551-.79-2.131-.79-1.79-1.895-3.421-2.053-4.895-.475l-.238-1.657c-.527-1.948-1.579-2.369-3.159-1.263-2.578-2.685-4.789-4.449-6.632-5.291-1.527-.526-2.528-.395-3.001.396-.789-.79-1.633-1.291-2.526-1.501a28.345 28.345 0 0 1-2.526-.711c-1.211-.052-1.737.606-1.58 1.974-1.895.106-3.197.435-3.909.987-.71.553-.894 1.33-.552 2.33.342 1 1.118 1.816 2.33 2.447-.316.369-.447.948-.395 1.737.053.79.894 1.448 2.525 1.974 1.212.316 2.396.342 3.554.079-.263 1.21.158 1.974 1.263 2.29 1.526 1.58 3.422 1.975 5.686 1.185l-.237 1.5 3.08 1.263c.105 1.475.789 2.527 2.054 3.158l1.207.522c-.261.03-1.392.965-1.407 1.114-.251.292-.928 1.746.717 2.067 1.252.143 2.623.271 3.939.243.033.388.269 1.018.519 1.467.225.475.775 1.167 1.697 2.167.855.93 2.467 1.848 3.827 2.425-.088.098-.461 1.124-.802 2.067-.417 1.152-.633 3.021.172 4.024-.175-.086-.929.441-1.2.859-.982 1.52 1.148 3.7 1.486 4.45-.165-.019-.754.279-1.064.501-.732.521-.483 3.138 1.598 3.585.521.251 2.912 1.64 4.105 2.856.233.238.903 1.498 1.858 2.752.51.67 1.049 1.799 2.297 1.827 1.14 3.693 3.019 7.22 5.271 10.664-.011.107 2.057 2.302 2.8 4.289-.251 1.285-.222 2.39-.227 2.453-.271 2.539-.729 4.87-1.369 6.991-2.24-1.081-2.604.393-2.937 1.841.057-.073-1.041-.214-1.187.291.097-.876-1.345-1.647-1.999-1.182-.018.011-.719.505-1.153.835-.147.112-.276-.723-.324-1.347-.022-.428-.106-1.894.167-2.468.043-.094.572-.727.9-1.315.665-1.192.179-4.948-.642-7.547-.247-.779-.759-1.151-1.208-1.328-.182-.071-1.361-.004-1.586.901-.063-.514-.893-.819-1.508-.965-1.727-.41-3.574 2.907-3.368 5.988-1.257-.996-2.915-.679-2.714 1.048.282 2.415 3.915 6.707 4.025 8.645-1.087-.971-3.552-.995-3.555 1.36-.002.716.583 1.929.827 2.447-.503 2.511 2.395 4.352 4.76 6.722-.042 1.122.343 1.137.704 1.574-.43.663-3.078 4.835-3.113 4.934-.128.053-1.956-.972-2.558-.441-.64.567-1.159 1.339-1.459 1.798l.317 2.925c.211 1.21-.435 2.566-1.936 4.063-1.5 1.501-2.487 2.882-2.961 4.147-.263.947-1.29 1.975-3.078 3.079-.105-.315-.527-.817-1.264-1.501-.105-.21-.316-.287-.632-.234-1.79.473-5.396 2.536-10.818 5.222-.943.477-2.286 1.671-4.023 4.671h-3.079c-.843-1-1.737-1.617-2.686-2.459-.684-.526-1.895-.582-3.631.312-1.632-.369-3.263-.148-4.896.903-1 .369-1.737.384-2.21.174l-3.869-4.214c-8.001-3.369-12.371-4.881-13.108-4.513-.789.474-1.368 1.149-1.736 2.043-.79-.367-1.974-1.371-3.554-3.005l-2.447-2.764c-1.79-1.999-2.527-3.896-2.211-5.688l.395-2.447c.053-.368 0-.659-.158-.869-.579-.631-1.604-1.01-2.131-1.118-.113-.046-.455-.165-.844 1.262.103.34-2.526-3.464-2.562-3.594.708-.758 1.964-3.005 2.681-5.617.811-2.959 1.187-6.224 1.154-7.472.124-.234.156-.298.299-.438 1.224-.939 2.777-9.728 2.43-11.842-.158-.843-.356-1.276-.593-1.303s-.461.04-.671.197l.474-.948c.263-.685.263-1.131 0-1.342-.157-.167-1.582-.145-2.819.482-.151-1.372-.801-3.384-1.135-4.112-.111-.243-.454.018-.465.024-2.21 1.339-3.192 4.27-3.978 7.905l-.634.581c-2.834 3.551-5.102 7.685-6.07 12.334-.474-.739-.744-1.806-1.165-3.201-.421-1.392-.552-2.328-.395-2.801.421-.736.29-1.421-.395-2.054-.527-.527-1.211-2.895-2.053-7.106.052-1.105.5-2.764 1.342-4.974.842-2.211 2.25-5.011 4.093-8.17.1-.137.917-1.024 1.168-1.087 2.734-.679 14.879-16.416 13.605-23.743-.202.878 5.216-8.647 5.652-10.605l.67-.218.79-.315c2.632-1.053 4.87-2.177 6.923-3.125l3.184-1.691c2.211-.947 4.317-2.237 6.317-3.869 2.105-1.842 3.237-3.763 3.395-5.764-.368-.474-1.447-.737-3.237-.79.948-1.053 1.448-2.158 1.5-3.317-.685-.947-2.737-1.105-6.159-.473-3.579.895-6.712 2.29-9.396 4.185a33.841 33.841 0 0 0-7.383 6.356c-2.185 2.5-3.935 5.093-5.25 7.778l1.579-3.632c.79-1.737 1.632-3.764 2.527-6.08.263-1.105.276-1.895.039-2.369-.236-.473-.75-.605-1.539-.395-.842.21-2.369 1.316-4.58 3.316-2.422 2.475-4.567 5.528-6.435 9.16-1.869 3.631-3.146 6.5-3.83 8.606.368-2.368.316-4.395-.158-6.08-.263-.685-.842-.869-1.736-.553-.843.58-1.685 1.448-2.527 2.606s-1.658 2.277-2.447 3.355c-.79 1.08-1.725 2.619-2.803 4.62-1.079 2-2.027 4.37-2.843 7.106-.816 2.738-1.435 6.37-1.856 10.896-.263 2.896-.052 6.002.632 9.318.842 3.316 1.684 5.764 2.526 7.343.843 1.58 1.632 2.501 2.37 2.764.473 1.158 1.105 3.08 1.895 5.766.421 1.262.605 2.223.552 2.882-.052.655.119 1.118.514 1.382.395.263.723.788.987 1.577.684 2.528 1.605 4.87 2.763 7.03a19.4 19.4 0 0 0-.315 3.471c-2.526-7.313-4.58-12.843-6.159-16.581-3.053-6.789-5.449-9.895-7.186-9.316-.845.316-1.371 1.079-1.581 2.29-.053.473-.053 1.684 0 3.631.052 1.948.236 4.002.552 6.158 1.58 7.002 4.291 12.847 8.134 17.531l5.764 6.791c1.158 1.157 2.263 2.013 3.316 2.563 1.053.554 2.027.697 2.922.435 1.315 2.107 2.974 4.316 4.975 6.634 1.263 1.946 2.58 2.868 3.948 2.763.579 1.263 1.447 1.896 2.606 1.896l1.184-.157c1.631 1.578 3.106 2.84 4.421 3.79l-1.5 4.264c-2.632.368-5.054.578-7.265.631-2.053-1.476-4.947-3.475-8.685-6.002l-.237-4.737c-.106-1.631.184-3.001.868-4.105.158-.895-.342-1.712-1.5-2.447-1.737-.842-2.475-1.186-3.212-1.027-.315.104-.054.396-.054.869v.295c0-.239.103-.319.405-.218 2.21.582 3.208 1.318 3.049 2.213-.685 1.156-1.015 2.475-.962 3.947l.071 4.106a61.485 61.485 0 0 0-9.005-4.896c.368-.052.788-.095 1.261-.119.474-.027.789-.196.947-.512.157-.319-.133-.501-.87-.554-1.631 0-2.683.13-3.158.396-.368.42-.29.865.237 1.339 3.79 1.896 7.132 3.79 10.028 5.688 4.579 2.896 8.132 5.263 10.659 7.106 2.475-.052 5.948-.396 10.423-1.027l6.791-1.262a134.54 134.54 0 0 1 8.685-1.343c1.105-.158 2.5-.264 4.186-.315a40.958 40.958 0 0 0 4.658-.396c1.369 2.58 2.211 4.842 2.527 6.791.158 1 .026 1.554-.395 1.659-6.265 2.313-10.765 3.775-13.502 4.379-2.737.606-5.212 1.146-7.423 1.62a267.251 267.251 0 0 1-16.344 2.447c-1.369-.368-5.317-2.395-11.844-6.08-4.633-2.787-7.87-5.053-9.712-6.788-2.105-2.265-2.948-3.632-2.526-4.109 1.368-2.262 2.29-4.264 2.763-5.999.21-.736.263-1.314.158-1.735-.579-1.792-.158-2.714 1.264-2.767 3.526-.21 5.896-.263 7.106-.157.526.052.869-.105 1.026-.474l1.185-2.367-.711-.315-.967 1.578-.01-1.596v2.069l-8 .157c-.685 0-1.499.263-1.948.789-.447.526-.584 1.581-.164 3.159a4.39 4.39 0 0 1-.141 1.501c-.368 1.683-1.373 3.737-2.953 6.156-.21.372-.133.923.261 1.659.396.739 1.375 1.896 2.954 3.475.685.684 1.72 1.528 3.115 2.527s3.854 2.528 7.381 4.579c4.158 2.476 8.131 4.526 11.921 6.161.79.052 6.053-.659 15.791-2.132l.079.865c-2.79 2.107-4.58 2.978-5.369 2.605-1.106.105-1.448.922-1.026 2.451.315.684.895 1.157 1.736 1.42l1.027 1.185 2.921 1.736c1.105.315 2.158.315 3.158 0 .948-.368 1.58-1.186 1.895-2.447l.311-.312 3.164-3.163 2.289-1.735c1.79-.315 2.948-.946 3.475-1.896.105-.842.342-1.367.71-1.578l2.764-1.896c.105-.263 1.237.186 3.396 1.343 1.053.263 1.974.21 2.764-.158l2.053-1.185c1.843.424 5.079 2.714 9.712 6.872-.053.474.237 1.023.868 1.658.368.474 1.369.866 3.001 1.182l1.104 2.055 1.106.396c1.63.053 3.157-.529 4.579-1.739l1.737-.554c.895-.684 1.29-1.368 1.186-2.052l-.712-.712-1.501-.393c-1.896-.897-3.814-2.106-5.763-3.632l-1.264-.95c5.738 1.003 12.869 1.791 21.398 2.37 1.052.21 2.46-.33 4.224-1.62 1.763-1.287 7.093-5.091 15.989-11.409a16.919 16.919 0 0 0 3.158-4.895c-.789-.736-1.487-1.788-2.092-3.159-.604-1.367-.987-2.524-1.145-3.475-.211-.895-.237-1.697-.079-2.409.157-.708-.079-1.381-.71-2.013-.265-.368-.87-.603-1.816-.708-1.685-.157-3.58-.133-5.686.077-1.001-.105-1.579-.34-1.737-.712l.079-1.893c.158-.842-.079-1.21-.71-1.104-2.317.578-3.712 1.156-4.187 1.735-.684.736-.657 1.525.081 2.37.578.525.867 1.129.867 1.816-.315 3.475-.604 5.816-.867 7.026-3.845 3.054-6.45 4.923-7.819 5.606-1.104.368-3.578.21-7.421-.474-.843-.736-1.448-2.002-1.816-3.79a49.548 49.548 0 0 0 4.185-2.844c1-.157 1.843-.354 2.526-.593.686-.234 1.027-.88 1.027-1.935.684-.264 1.184-.842 1.499-1.736l4.581-5.525c1.473-1.266 3.078-2.002 4.815-2.213 2.105-.157 4.844-1.343 8.212-3.552.527-.582.527-1.396 0-2.45 1.001-.579 2.633-2.209 4.896-4.896.894-1.262 1.104-2.657.631-4.183 2.105-2.528 3.291-4.526 3.554-6.003.21-1.314.184-2.738-.079-4.263.999-.632 1.697-1.172 2.094-1.62.395-.445.591-1.066.591-1.855 0-.788-.29-1.447-.868-1.974 1.529-2.152 1.713-4.1.554-5.837zM59.483 8.302c0 1-.5 2.105-1.711 3.316-1.843 1.685-4.043 3.238-6.807 4.659-2.764 1.422-6.465 3.105-10.465 5.053v-.473c5-4 10.03-7.264 14.61-9.792 1.211-.737.739-.947-.682-.632-1.58.79-3.29 1.764-5.184 2.922a940.775 940.775 0 0 0-9.225 6.08l.085-.948c6.001-5.264 10.926-8.658 14.769-10.186 1.896-.42 3.504-.42 4.61.001zm-17.91 1.895c2.869-2.369 6.303-4.211 10.304-5.528 1.948-.526 3.632-.763 5.053-.71.685.158.869.552.553 1.184l-1.737 2.29c-1.527.211-3.619 1.08-6.277 2.606-2.659 1.527-5.515 3.554-8.567 6.08l-1.105.711c-.579-.422-1.632-.237-3.158.552 4.843-4.053 9.054-7.133 12.634-9.238 2.316-1.158 3.658-1.974 4.027-2.448-1.159.316-2.79 1.041-4.896 2.172-2.106 1.131-5.58 3.487-10.423 7.066l-4.659 4.185c2.631-3.579 5.382-6.553 8.251-8.922zm-4.856 8.765c.842-.475 1.421-.659 1.737-.553.21.527.263 1.25.158 2.172s-.79 2.856-2.054 5.803l-2.921 5.686c-2.053.263-4 1.211-5.843 2.843.948-1.631 2.093-3.5 3.435-5.606 1.343-2.105 3.435-5.264 6.278-9.475.473-.79.487-.987.04-.592-.448.396-1.646 1.908-3.593 4.541-1.948 2.631-4.553 6.712-7.817 12.238-.895 1.369-3.041 4.667-6.581 10.097l.432-1.224 4.744-8.399 4.563-8.528c2.157-3.845 4.632-6.845 7.422-9.003zM17.371 38.306c2.105-3.421 4.633-8.264 7.581-14.528.895-1.843 2.21-3.922 3.948-6.237.526-1.212.237-1.186-.869.079-2.579 3.211-5.58 8.291-9.001 15.239l1.5-3.79c.264-.842 1.106-2.75 2.527-5.725 1.421-2.974 2.816-5.33 4.185-7.067 1.369-1.737 2.316-2.869 2.843-3.395 1.895-1.632 3-2.395 3.316-2.291.263.211.342.553.237 1.026l-3.869 9.95c-2.527 4.895-5.843 10.001-9.949 15.317-1.737 1.896-2.816 3.106-3.238 3.633-.42.526-.762 1.026-1.026 1.5l.316-1.342 1.499-2.369zm2.133 9.003c-1.106 2.053-1.949 3.895-2.527 5.527l-.632-.079 1.658-5.132 1.501-.316zm-5.843 13.422l.552-2.29.474-2.29 1.263-.238-1.58 4.265-1.105 3.71.396-3.157zm-.317-8.606c.369-2.369.869-4.527 1.5-6.474l.632.79-2.132 5.684zm-3 15.712l-.315-.631c-.315-.474.236-3.554 1.658-9.239-.527 4.212-.974 7.502-1.343 9.87zm-1.184-4.5c-.422-2.158-.171-6.699.75-13.621.921-6.922 2.092-11.857 3.513-14.805.685-1.526.658-1.764-.079-.711-3.211 5.475-5.08 13.555-5.605 24.241-.106 3.737.105 6.435.631 8.093.527 1.658 1.132 2.619 1.816 2.882.368.21.763.184 1.187-.079-.048-.014-.299 1.419-.245 1.736-1.41-.633-2.445-1.704-3.074-3.197-.632-1.5-1.224-3.46-1.777-5.883-.553-2.421-.776-5.316-.671-8.685.264-4 .842-7.896 1.737-11.687 1.316-5.264 4-10.264 8.054-15.002.895-1 1.448-1.237 1.659-.711.21 2.105.197 4.145-.04 6.119s-.75 4.171-1.54 6.594c-2.054 6.843-3.29 11.448-3.711 13.818-.789 2.792-1.658 6.423-2.605 10.898zm2.34 7.581v-1.264c2-2.158 1.765-4.211 2.501-6.159l2.773-7.106 3.22-7.501c1.737-3.369 4.189-7.211 7.295-11.528 1.842-2.157 3.49-3.316 4.91-3.474.37.527.377 1.606.008 3.237-.368 1.632-.997 3.343-1.892 5.132-.06.022-.133.054-.052.098-3.403 6.267-6.702 10.813-9.896 13.641l5.446-8.844 2.6-4.737c1-1.79 1.172-2.422.54-1.895-5.316 8.001-8.526 13.028-9.579 15.081-1.053 2.053-2.13 3.974-3.129 5.764-1.001 1.79-2.007 3.185-2.322 4.185s-.423 2.79-2.423 5.37zm21.189 3.237c-.158 2.369-.685 5.317-1.579 8.844-.053-2.896-.184-4.844-.395-5.845l.711-1.973c.053-.685-.08-.711-.396-.079l-.473.867-.079-1.578 1.184-1.501c.79-.788 1.133-.368 1.027 1.265zm-1.184-4.264c.684-.158.815.158.395.947l-1.5 2.211a18.52 18.52 0 0 0-.395-2.291 9.212 9.212 0 0 1 1.5-.867zm-6.238 3.711c1.105-4.369 2.158-6.685 3.158-6.948.58 1.527 1.054 4.356 1.422 8.488.368 4.134.368 7.857 0 11.175-.474 4.211-1.184 7.051-2.132 8.527l-1.026 2.208c0-3.264.04-5.922.118-7.973.079-2.055.158-4.779.237-8.173.079-3.396.302-7.252.671-11.568.21-1.053.158-1.289-.158-.71-.843 4.37-1.343 9.975-1.501 16.819l-.079 4.499-.158 6.16-1.026-1.186c-.737-3.685-1.053-7.552-.948-11.605.159-3.002.633-6.238 1.422-9.713zm-6.988 13.226c.869-3.871 2.855-7.882 5.961-12.042-.526 2.158-.816 3.764-.869 4.815-2.316 4.001-4.106 7.977-5.369 11.925-.315 1.21-.579 2.657-.79 4.341-.156-2.156.199-5.172 1.067-9.039zm5.173 6.592l-1.737-2.209 1.263-3.159a23.618 23.618 0 0 0 .474 5.368zm15.949 32.611l1.105-3.159 3.632 2.37-4.737.789zm8.685-1.578l-5.922-3.555-5.448-3.633-1.026-1.343c-.316-.368-.75-.445-1.303-.235-.553.211-.987-.105-1.304-.946-1.421.841-2.869.525-4.342-.95l-2.606-3.156-2.447-4.186-.869-.632a2.351 2.351 0 0 1-1.657.344c-1.03-.137-2.211-.82-3.396-2.079-.737-.688-2.317-3.397-4.738-8.135-3.21-6.107-5.395-10.711-6.553-13.817-.842-2.581-1.395-4.211-1.658-4.895-.264-.685-.369-.698-.317-.041.053.658.448 2.134 1.185 4.424.736 2.289 2.105 5.645 4.106 10.066 1.736 3.579 3.448 6.844 5.132 9.789-3.896-4.211-6.712-8.159-8.449-11.844C4.737 85.996 3.578 82.63 3 79.524c-.263-1.106-.422-2.805-.475-5.094-.052-2.289-.026-3.565.079-3.83.263-.79.632-1.131 1.106-1.026.315 0 1.04.75 2.171 2.25 1.132 1.5 2.671 4.87 4.619 10.108 1.948 5.234 3.145 8.671 3.593 10.305a53.4 53.4 0 0 0 1.342 4.264 37.038 37.038 0 0 0 1.619 3.709c.947 1.894 1.895 3.184 2.843 3.871 1.249.884 2.16 1.041 2.759.467l-2.888-5.165c-.262-.115-.558-.137-.898-.042-.058.004-.093-.018-.147-.018-.003 0-.004.021-.005.021-.121-.004-.205-.046-.311-.063-.119-.021-.252-.031-.351-.073-.093-.039-.153-.116-.228-.176-.089-.07-.191-.126-.255-.225-.058-.088-.079-.214-.116-.322-.038-.112-.094-.207-.11-.34a3.578 3.578 0 0 1 .023-.937c.105-.946.448-2.577 1.026-4.895 1.159-3.896 2.816-7.763 4.975-11.605-.263 1.683-.395 3.103-.395 4.264-1.948 4.368-3.369 7.896-4.264 10.578-.474 1.949-.448 2.896.079 2.844l.631-.316-.473-1.104.315-.869.948 1.658.553-.396.474.711-.474.712 3.553 5.13.869-.708.632.708c-1.053 1.056-1.475 1.739-1.264 2.055.949 1.735 1.816 3.131 2.606 4.187 1.58 2.313 2.869 2.973 3.869 1.974.315-.263.711-.21 1.184.158.474.368 1.001 1.157 1.58 2.366l-.079-1.816-2.921-2.763-1.659-3.316c-1.369-1.946-2.342-3.447-2.921-4.499a146.762 146.762 0 0 0-2.171-3.79c-.868-1.476-1.934-3.135-3.197-4.976l.237-.869 2.527 3.078c2.264 2.896 3.855 5.095 4.776 6.596.921 1.5 1.461 1.854 1.619 1.065l.474-1.5.71.396-.473 3.079-.158.946c-.054.736.092 1.171.434 1.305.342.129.645.617.908 1.458.158.526.987 1.62 2.488 3.278 1.5 1.658 3.079 3.054 4.737 4.184a321.458 321.458 0 0 0 4.106 2.766c1.08.709 1.593 1.406 1.54 2.09l1.5.315-.394-1.893.947-.239c.474.316.869.898 1.185 1.739 1.369 1.052 2.553 1.894 3.553 2.524l-3.476.635zM22.188 98.791l.475-.473 2.21 3.709-.238.474-2.447-3.71zm3.711 7.423l.869-1.108 2.053 2.925 1.185 2.132.395 1.182c-.736-.368-1.368-.919-1.896-1.658l-1.263-1.655-1.343-1.818zm27.478 17.289l-3.396-2.366a524.402 524.402 0 0 0-3-3.556c-.631-.736-1.237-1.263-1.815-1.578-.844-.473-1.527-.631-2.054-.473-.368.104-.762.631-1.184 1.577l-.158-.157c.21-.895.54-1.448.987-1.659.447-.21 1.014-.157 1.698.158l3.789 1.816 6.475 2.447c1.58 1.687 2.553 2.844 2.921 3.475a50.17 50.17 0 0 1-4.263.316zm2.053 16.504c-2.211 2.16-4.711 4.211-7.501 6.16l-.948-.315c1.632-1.003 3.948-2.633 6.949-4.898l1.343-1.5-.711-.077c-1 .894-2.145 1.802-3.435 2.724-1.29.923-2.776 1.803-4.461 2.645l-2.291 1.107.396.474 1.737.234c1 .632 1.421 1.267 1.263 1.897-.527.789-1.369.894-2.526.315l-1.895-1.027c-.685-.684-1.369-1.157-2.053-1.42l-.79-.631.315-.717L43.191 146h.711l-.395-1.496 2.843-1.773c.736-.262 1.053-.73.947-1.361l.237-1.432c1.21.263 2.526.059 3.948-.597 1.421-.659 2.763-1.042 4.026-1.147.791.526.764 1.129-.078 1.813zM88.435 16.988l.159-1.816-1.501.315c-1.421.475-2.843.053-4.263-1.263-.949.158-1.344-.21-1.186-1.105.368-.79.263-1.21-.315-1.263l-2.29.237c-1.475-.21-2.447-.632-2.922-1.263-.316-.527-.105-1.185.633-1.974-1.422-.58-2.304-1.21-2.646-1.895s-.132-1.237.631-1.659c.763-.42 2.172-.5 4.226-.236-.474-.58-.607-1.185-.395-1.816.052-.631 1.42-.289 4.105 1.026l1.578.948c.422-.79 1.132-1.026 2.133-.711a18.73 18.73 0 0 1 3.395 2.092c1.054.816 2.236 1.987 3.554 3.514 1.105-.737 1.895-.579 2.368.473l.236 1.895c-1.157-1.105-2.578-1.184-4.264-.236l-1.104-.474c-1.526-1.842-2.448-3.238-2.765-4.186-.315-1.21-.473-1.315-.473-.315.053 1.053.684 2.396 1.895 4.027-2.315-.736-4.015-1.684-5.093-2.843-1.079-1.158-1.909-2.131-2.487-2.921-.578-.947-.815-.947-.71 0 .631 1.159 1.501 2.238 2.604 3.238a51.212 51.212 0 0 1-2.368-1.106c-1.843-.789-3.369-1.21-4.579-1.263-.58 0-.606.105-.079.315 2.054.527 3.54 1.014 4.46 1.461.923.448 1.541.855 1.857 1.224a10.611 10.611 0 0 1-4.581.869c-1-.053-1.446-.026-1.342.079.105.105.421.211.947.315 1.895.211 3.816.001 5.764-.631 1.422.737 3.08 1.447 4.976 2.132-1.159.263-2.291.79-3.396 1.58-.421.526-.211.552.631.079.843-.632 2.105-1.027 3.79-1.185l1.343.552c-.104 1.422.237 2.869 1.026 4.344l-.868.315-2.684-.869zm9.003 8.446c-2.949.053-3.542-.019-3.71-.472-.11-.35-.172-.67.866-1.263l.533-.896c-1.713-.783-3.294-1.713-3.377-3.841l1.422-.553c.631-.736.646-1.29.04-1.658-.606-.369-.936-1.343-.988-2.921.58-1.263 2-1.263 4.266 0 .999-1.948 2.21-2.527 3.63-1.737-1.524 0-2.421.658-2.684 1.974-.158.842-.158 1.869 0 3.08a8.102 8.102 0 0 0-1.896-1.895c-1.422-.736-1.685-.658-.789.236a22.627 22.627 0 0 1 2.369 2.764c-1.159.947-2.421 1.369-3.79 1.264-.474.21-.395.342.236.395.631.158 1.369.105 2.211-.158-.105.842.172 2.24.54 3.081.499.719 1.165 1.354 1.947 1.931-.367.105-.668.301-.826.669zm1.657 1.503c-.053-.632.5-.987 1.658-1.066 1.157-.079 1.342-.408.553-.987a8.119 8.119 0 0 1-3.79-2.685c-.684-.895-.684-1.526 0-1.895l1.185-.315.553-.711-.71-2.764c-.211-1.421.184-2.421 1.183-3 1.422-.21 2.817.211 4.185 1.264.053-.737.541-.96 1.463-.671.92.29 1.775 2.25 2.564 5.883l1.264.473c.421-1 .763-1.5 1.027-1.5.421 0 .842.868 1.263 2.606 1.054.947 1.554 2.5 1.501 4.658-.684.895-1.054 2-1.104 3.317l-.633-1.422a19.29 19.29 0 0 1-.474-4.974c-.053-.736-.132-.736-.236 0-.158 1.527-.185 2.816-.079 3.869a37.827 37.827 0 0 0-4.581-4.975c-.315-1.158-.421-2.474-.315-3.948-.158-1.263-.289-1.552-.395-.869-.105 1.58-.053 3.053.157 4.422-1.211-1.21-2.631-2.974-4.264-5.291-.42-.736-.604-.894-.552-.473.999 1.895 2.053 3.474 3.157 4.738 1.106 1.263 2 2.263 2.686 3-1.369-.422-2.554-.698-3.553-.829a8.658 8.658 0 0 1-2.764-.83c-.79-.158-.764.026.077.552.476.316 1.437.606 2.883.869 1.448.264 2.803.711 4.067 1.343.684.42 1.605 1.5 2.763 3.237l.948 2.132c-1.475-.789-3.106-1.342-4.896-1.658-1.788-.316-2.842-.605-3.157-.869-1.369-.579-1.527-.526-.474.159.315.315 1.434.67 3.355 1.065 1.922.395 3.776 1.145 5.566 2.25l.157.473c-.368.422-.499 1.001-.395 1.737l.553 1.58c-.474-.58-1.131-.315-1.974.79.315-.685.236-1.316-.237-1.895-.736-1.105-2.526-2.29-5.37-3.553l-.473.869c-2.316-.738-3.763-2.106-4.342-4.106zm19.226 39.361c-.552-.816-1.343-2.066-2.368-3.751s-1.776-3.053-2.251-4.105a4.584 4.584 0 0 1-.237-3.237c.315-1.106.579-1.948.791-2.527.21-.579.184-.685-.079-.316-.633 1.105-1.08 2.185-1.343 3.237l-1.579-4.501c.157-1.789 1.105-4.078 2.843-6.868.526-.948.474-1.027-.159-.238-1.578 2.105-2.605 4.238-3.078 6.396l-2.447-5.448c-.053-1 .578-2.896 1.895-5.685.684-1.475.526-1.422-.475.158-.842 1.579-1.446 3.053-1.816 4.421-.736-3-1.446-5.554-2.132-7.659l-.553-.158.316.869c.42 2.632 1.001 4.922 1.737 6.87-1-.895-2.132-1.632-3.395-2.21-.686-.368-.686-.29 0 .237 1.525.895 2.685 1.79 3.473 2.685.632 1.474 1.212 2.816 1.737 4.027-.946-.685-2.552-1.473-4.815-2.369-.843-.158-.843-.053 0 .316 2.842 1.158 4.605 2.29 5.289 3.395l1.58 4.185c-.579 0-1.343-.868-2.29-2.605-.791-1.475-2.765-2.896-5.922-4.265-.631-.263-.922-.815-.868-1.658.105-.579.71-.816 1.816-.711-.317-.895-.686-1.605-1.106-2.132l-.631-.947c-.843-1.737-.344-2.605 1.499-2.606-.684-1.053-.921-1.868-.71-2.447-.053-1 .184-1.974.71-2.922a9.318 9.318 0 0 0 .712-1.895c.999.58 1.907 1.066 2.725 1.46.814.396 1.25 1.119 1.302 2.171l-.394 2.448c.157.474.578.315 1.262-.474.684-.947 1.237-1.5 1.658-1.658.579.263 1.133.737 1.658 1.421.526 1 .342 2.843-.552 5.527l-.869 2.211c1.79-2.369 3.237-3.5 4.342-3.395.368.263.487.803.356 1.618a8.359 8.359 0 0 0 0 2.566c.131.895-.172 1.659-.908 2.29-.736.632-1.238 1.658-1.501 3.079 1.685-1.263 2.368-1.026 2.053.711l-.946 3.396c-.264 1.631 0 2.395.789 2.29.79-.105 1.276 0 1.462.315.183.315.223.869.117 1.659-.474 1.105-.684 1.829-.631 2.171.053.342.196.632.433.869.238.237.751.184 1.541-.158.789-.342 1.184-.105 1.184.71 0 .817.014 1.606.04 2.37.026.763.275 1.514.751 2.25.368.527.841.869 1.42 1.026l.712-.869c-1.054.053-1.541-.631-1.461-2.053.077-1.421.065-2.526-.04-3.316-.421-1-.842-1.553-1.264-1.659-.421-.105-1.395-2.737-2.921-7.896l1.658.079c1.21 4.422 2.185 6.804 2.921 7.146.736.342 1.08.736 1.027 1.184-.053.447.079 1.408.395 2.882.946-.264 1.5-1.132 1.658-2.606.263-1.369-.132-2.421-1.186-3.158-1.104-.632-1.737-1.21-1.895-1.738-.315-.895.026-1.447 1.027-1.658.578-.315-.817-1.579-4.185-3.789-1.737-1.212-2.266-2.291-1.58-3.238.263-.473.751-.46 1.461.04.71.5 1.171.619 1.381.356.368-.737.079-1.251-.867-1.54-.949-.29-1.396-.619-1.343-.987-.053-1.631-.027-2.736.078-3.316s.053-1.263-.157-2.053c-.579-.842-1.685-.79-3.317.158.37-.895.461-1.764.277-2.606-.185-.842-.593-1.658-1.224-2.448l-.789-2.448c-.212-.843.263-1.421 1.42-1.737-.368-1.632-.368-2.79 0-3.475.368-.737.633-1.342.791-1.816.157-.474.631-.526 1.42-.158.79.368 2.053 1.763 3.79 4.185.844-.948 1.658-.605 2.449 1.026.946 1.474 1.314 3.238 1.104 5.291 1.947-1.053 2.631-.343 2.053 2.132.843 1.737 1.355 3.092 1.539 4.066a3.788 3.788 0 0 1-.474 2.725c-.499.841-.736 1.486-.71 1.935.026.447.211.434.553-.04.342-.474 1.04-.869 2.093-1.185.684 1.474.974 2.448.868 2.921 0 .58-.356 1.211-1.065 1.895-.711.685-1.119 1.501-1.225 2.448 0 .474.237.71.711.71l1.421-.395c.736-.105.763.474.079 1.737-.736 1.368-1.276 2.526-1.618 3.474s-.514 1.711-.514 2.291c-.053 1.21-.263 1.921-.631 2.132a26.78 26.78 0 0 0-.119-4.777c-.185-1.659-.514-3.513-.987-5.567.421-.368 1.001-1.605 1.737-3.711.368-1.052.29-1.184-.236-.395-.579 1.58-1.159 2.553-1.737 2.921-.578-1.947-1.212-4.316-1.896-7.106.789-1.316 1.29-2.974 1.501-4.975.053-1.685-.053-1.816-.315-.395-.317 2.001-.896 3.553-1.737 4.659a79.076 79.076 0 0 0-2.211-6.238c.263-1.105.368-2.395.315-3.869-.053-1.473-.184-1.526-.395-.158 0 1.105-.133 2.053-.396 2.843l-1.736-4.422-1.105-2.526c-.368-.842-.5-.842-.395 0l1.025 3.316c-.789-.895-1.527-1.552-2.211-1.974-.684-.42-.815-.395-.395.079a19.16 19.16 0 0 1 3 3.237 271.619 271.619 0 0 1 2.055 5.212c-2.002-1.685-3.396-2.632-4.187-2.842-.999-.369-.999-.184 0 .552 1.422.895 3.106 2.475 5.054 4.738a671.721 671.721 0 0 1 1.816 5.37c-1.001-.58-2.211-1.737-3.633-3.475-.631-.631-.657-.526-.078.315a22.462 22.462 0 0 0 4.026 4.58l1.186 4.816c-1.212-1.21-2.791-2.448-4.739-3.711-.841-.526-.894-.421-.157.315 1.685 1.211 3.448 3.001 5.291 5.37.525 1.475.763 4.185.71 8.133-.053 1-.789 1.737-2.211 2.21l-.315 3.791-1.974.079a179.272 179.272 0 0 1-2.407-3.433zm2.575 3.703c.315-.105 1.025-.018 1.709-.018-.736 4-1.586 8.383-2.27 11.119l-1.106-.631c.949-3.79 1.458-8.048 1.667-10.47zm-14.024 22.511c-.29-.235-1.172-.961-2.644-2.171-1.317-1.156-1.738-2.208-1.265-3.158a8.42 8.42 0 0 1-.987-1.659c-.289-.631-.224-1.248.198-1.854.421-.606 1.394-.329 2.921.831.263-.897.263-1.739 0-2.528s-.578-1.577-.946-2.37c-.686-1.262-1.343-2.342-1.975-3.236-.58-1.21-.712-1.895-.396-2.053.315-.158.816.053 1.5.632 1.316-1.421 2.185-1.829 2.605-1.224.422.605.765 1.619 1.027 3.04.263 1.422.289 2.895.079 4.423l-.315.316.315.315c.104.315-.026 1.5-.395 3.552 0 .421.131.845.395 1.266-.105-.635-.132-1.108-.079-1.424.053-.263.225-.88.514-1.854s.433-1.525.433-1.658c0-.13.017-.225-.404-.277.473-.158.55-.382.682-.67.132-.291.157-.578.079-.869-.079-.288-.132-1.119-.158-2.486-.026-1.369-.157-2.409-.395-3.12-.236-.71-.382-1.263-.435-1.658-.053-.395-.368-.618-.946-.671-.581-.052-1.396.527-2.449 1.737.475-2.263.961-3.777 1.462-4.54.5-.764 1.013-.987 1.539-.671.526.315.868.658 1.025 1.026.158.368.396.302.712-.197.315-.5.578-.671.789-.514.21.159.435.474.672.947.236.475.408.974.514 1.501.104.526.196 1.486.274 2.882.079 1.395-.091 2.329-.512 2.803-.423.475-.633 1.054-.633 1.737.105 2.738.315 4.092.633 4.067.315-.028.696-.239 1.145-.632.447-.396.842-.54 1.184-.435s.54.87.593 2.29.184 1.567.395.435c.21-1.133.606-1.697 1.185-1.697.579 0 .685 1.525.315 4.579-2.053 1.841-3.526 3.369-4.421 4.579-.315-1.314-.329-2.236-.04-2.763s.552-1.118.79-1.777c.237-.659.434-1.252.593-1.778.421-1.262.342-1.367-.238-.315-.315.631-.593 1.186-.827 1.658-.238.474-.514.947-.829 1.424-.107-.845-.449-2.346-1.027-4.502-.474-1.473-.605-1.448-.395.077.42 2.476.71 4.87.867 7.188a20.869 20.869 0 0 0-2.724-2.447 15.167 15.167 0 0 1-2.407-2.212c-.58-.368-.686-.315-.315.157.631.842 1.565 1.83 2.801 2.963 1.238 1.129 1.988 1.88 2.251 2.248.264.371.421.687.474.95a25.242 25.242 0 0 1-1.658 1.974c-.368-.211-.579-.568-.631-1.066-.054-.505-.226-.873-.515-1.111zm-28.306 28.859c.631-.736 1.446-1.392 2.447-1.974 4.474-2.209 7.448-3.499 8.921-3.867.264-.105.502-.028.712.234l.631.793-.867.55c-.527.421-1.186.607-1.976.555-.685-.053-1.604.172-2.763.669-1.157.502-1.791 1.199-1.896 2.094-.211.631-.5 1.027-.868 1.185a98.113 98.113 0 0 1-3.159 1.659l-2.447-.158 1.265-1.74zM85.277 124h-.395l-.011-.187c-.273.108-.556.136-.859.253l-2.604-.362 2.763-1.362.701 1.312c.126-.053.242-.105.361-.154l-.351-1.337c-.264-.894.053-1.722.946-2.251.843-.632 1.764-.951 2.765-.846.421.052.447.753.079 2.229-.267.621-1.42 1.523-3.439 2.368l.044.337zm-11.529 10.166l-.395-1.267-2.131 2.687-1.738 1.104c-.789.684-1.605.946-2.447.788l-2.764-1.339 1.421-.712.394.315c-.263.789.053.684.949-.315l2.447-2.37c.158-1.42-.184-3.25-1.026-5.487s-1.474-3.643-1.895-4.225c-.105-.474-1.316-.579-3.633-.316 1.369-.684 2.975-.736 4.817-.157l1.895.789 1.031-.438-.147-.141-1.753-.841.948.08.805.761.223.105-.075.035.549.519c2.684 2.896 4.196 4.87 4.54 5.922.342 1.053.381 2.08.117 3.079-.999 1.319-1.711 1.791-2.132 1.424zm18.873 11.366l.867.162-.315.393-2.053.631a6.918 6.918 0 0 1-3.159 1.581l-1.341-.238-.317-.946a2.717 2.717 0 0 1 1.225-1.027c.5-.211 1.146-.393 1.935-.555l1.895.319 1.263-.32zm-2.923-.435c-1.422 0-2.315.903-2.685.903h-1.105c-1.527-2-2.736-2.457-3.631-3.351l-3.711-3.138c.684-.367 2.157-.129 4.421.503l6.711 5.083zm11.292-16.499c1.526.13 2.684.066 3.475-.196 1.42-.579 4.342-2.738 8.764-6.476 4.264-3.212 7.869-5.449 10.818-6.711.895-.526.935-.908.117-1.146-.814-.235-2.039-.354-3.671-.354-.527.421-.475.765.158 1.027.736-.053 1.262 0 1.579.157-3.527 1.841-6.476 3.686-8.844 5.526.21-1.21.394-3.289.552-6.237a4.407 4.407 0 0 0-.946-2.528c-.368-.526.082-.999 1.451-1.42l1.057-.315v1.735l-1.451-.393.183.789c.315.578.906.975 1.75 1.185l4.267.235 1.899-.077c2.211.053 3.293.592 3.24 1.619a10.283 10.283 0 0 0 .235 2.883c.369 2.262 1.266 4.421 2.688 6.473-.315.946-1 2.055-2.052 3.316l-4.108 2.686c-3.525 2.524-8.317 5.817-14.371 9.87-4.315.105-9.5-.238-15.555-1.027-4.369-.578-9.395-1.683-15.08-3.316l-1.265-.315.553-.555c.896-1.156 1.383-1.932 1.462-2.328.079-.396-.072-1.29-.416-2.686-.342-1.396-.979-3.04-2.979-4.934v-.473l1.203-.158c3.265.211 6.183.631 8.734 1.263 2.553.631 5.597 1.209 9.124 1.735 3.422.634 5.902 1.013 7.429 1.146zm-5.922-2.094c-1.369-.21-3.58-.603-6.634-1.185l2.765-.946c1.474.315 2.315 0 2.525-.947a7.69 7.69 0 0 0 1.344 3.078zm16.502-23.291c-1.052 1.156-1.396 2.366-1.025 3.632-1.475.789-2.896 1.946-4.264 3.475-1.369 1.525-2.409 2.815-3.121 3.868-.71 1.052-1.46 1.683-2.249 1.896-.896.421-1.921.21-3.08-.635l-.315 1.975-5.291 3.239-2.605 1.104c.211-.526.342-1.42.395-2.686l.948-.789c3.633-1.894 5.738-3.633 6.316-5.21.736-1.318 1.527-2.409 2.369-3.278.843-.87 1.448-1.936 1.815-3.198l.079-1.894-.236-1.974c.842.946 1.605 1.157 2.289.631a52.658 52.658 0 0 1 3.554-5.726 49.603 49.603 0 0 1 4.027-4.933 481.175 481.175 0 0 1 3.632-3.871l-.078 1.974c-3.159 3.896-5.134 6.554-5.923 7.977-2.684 4.054-4.5 7.266-5.448 9.632-.578 1.314-1.422 2.37-2.526 3.159-.843.421-1.475.869-1.895 1.343-.368.684-.158.866.631.551a5.36 5.36 0 0 1 1.737-1.182c1.159-.582 3.632-3.317 7.423-8.212l-.079-2.767.868-1.5c-.053 1.528.078 2.37.395 2.527.315.158.75-.276 1.304-1.304.552-1.024 1.907-3.854 4.065-8.485-.474 1.42-.5 2.657-.079 3.71-1.264.894-1.605 2.423-1.025 4.579l-2.608 2.372zm17.728-17.531c-.185 1.318-.619 2.451-1.303 3.397-2.16 2.472-3.054 3.948-2.687 4.421.579 1 .474 2.132-.315 3.395-1.158 1.424-2.684 3.001-4.579 4.736.526 1.056.132 1.95-1.185 2.687-1.527.841-3.212 1.577-5.053 2.212 3.421-2.58 5.526-5.344 6.316-8.292 1.104-.999 2.079-1.658 2.921-1.974.738-.474.869-.684.396-.632-.949.368-1.95.947-3.002 1.736 1-1.999 1.711-4.159 2.132-6.473 2.053-2.002 3.344-3.58 3.869-4.74.736-1.104.763-1.34.079-.709-.789 1.315-2 2.711-3.633 4.184.738-2.262 1.396-4.79 1.975-7.581.263-1.63.184-1.921-.237-.866l-.788 2.764c-.37-1.104-.791-1.95-1.265-2.528l1.027 3.316c-.212 1.315-.712 3.184-1.5 5.606-.738-2.104-1.712-4-2.923-5.683-1.104-1.371-1.289-1.396-.553-.081 1.212 1.739 2.211 4.028 3.002 6.868-.633 2.528-1.369 4.632-2.211 6.318-.633-.946-1.29-1.605-1.976-1.974-.526-.263-.526-.105 0 .474.686.684 1.237 1.367 1.658 2.055-.631 1.524-1.46 2.867-2.485 4.024-1.027 1.157-2.041 2.132-3.042 2.921 1.264-1.946 1.685-4.105 1.264-6.473 0-.421.33-.764.987-1.027.657-.263.882-.554.672-.869-.579-1.157-.87-2.079-.868-2.763.421-.211 1.052-.211 1.894 0 .686-.474.619-1.146-.196-2.013-.817-.87-1.329-2.121-1.54-3.752 0-.946.632-1.29 1.896-1.027.579-.053.631-.736.158-2.051l-1.343-1.816c-.949-2.107-.553-2.868 1.185-2.29l2.053 1.263c1.368.525 2.026-.396 1.975-2.763 0-.526.406-.646 1.224-.358.814.291 1.565-.325 2.249-1.854.686-.736 1.211-.053 1.579 2.055-.157 2.791.526 4.106 2.053 3.948.263.158.303.894.12 2.209zm2.368-6.792c.079.526-.04.961-.355 1.305-.316.34-.921.642-1.816.904l-.868-1.585c.053-1.262-.368-2.482-1.264-3.641.368-.316.948-.65 1.737-.965.578-.265.473.025-.315.13-.843.158-1.502.962-1.975.962h-.157c.473-2 1.237-3.62 2.289-5.146.264-.686.105-.787-.473-.05-.896 1.263-1.686 2.505-2.369 3.926-.317-.316-.554-.946-.712-1.788-.21-1-.368-1.053-.473-.105.157 1.211.394 2.067.71 2.593-1.157 1.79-2.079 2.495-2.764 2.126.421-2.526.974-5.188 1.659-7.979 1.209-1.21 2.263-1.607 3.157-1.186 1.264-1 2.344-1.186 3.238-.554.473.79.684 1.565.631 2.329-.053.763-.315 1.618-.789 2.565.999 0 1.527.396 1.58 1.185-.423 1.79-1.265 3.079-2.528 3.868 1.159.214 1.778.58 1.857 1.106z"/><path fill-rule="evenodd" clip-rule="evenodd" fill="#FFF" d="M21.091 129.312c.009.183.192.172.383.337.735.494 1.446.28 1.942-.638.668-.923.444-1.631-.292-2.118-.383-.344-.383-.344-.713.214l-1.32 2.205zm-10.422-6.976c.944.669 1.501 1.171 2.509-.134.499-.736.451-1.623-.104-1.956-.185-.161-.551-.323-.551-.323-.186.008-.176.189-.354.2l-1.5 2.213zm14.977 7.366c.139-.723.282-1.263-.27-1.768l.167-.192c.357.165.75.501 1.11.659.374.157.744.494 1.292.638l-.173.183c-.178-.165-.726-.309-.89.049-.163.376-.603 2.174-.766 2.725l-.542 3.058 2.237-1.894c.333-.375 1.699-1.707 1.858-2.065.333-.558-.038-.711-.225-.887l-.019-.348c.375.33.736.495.931.66.373.161.731.318.925.49l.009.168c-.742-.487-1.414.438-2.104 1.007l-4.443 4.169-.365-.168 1.268-6.484zm-5.73 1.098c-.157.368-.648 1.114-.629 1.462-.16.368.194.533.577.869l-.169.179c-.37-.329-.747-.487-1.306-.831-.366-.15-.739-.479-1.106-.638l-.02-.364c.368.168.741.505.91.137.341-.204.85-.937 1.01-1.309l1.642-2.759c.154-.365.66-1.098.826-1.298.151-.536-.214-.697-.583-.855l.172-.189c.374.337.922.488 1.302.821.364.157.743.497 1.11.659.916.48 1.693 1.504.859 2.805-.821 1.469-2.273 1.186-3.199.529-.182.011-.555-.329-.555-.329l-.841 1.111zm-3.972-6.336c.157-.368.656-1.111.824-1.298.151-.539-.216-.701-.583-.858l.348-.211 3.902 2.479-1.004 1.476-.185-.164c.663-1.098.275-1.438-.646-2.104l-.562-.326c-.178-.171-.178-.171-.519.204l-1.49 2.398c1.116.838 1.632.276 2.132-.295l.18-.011c-.319.564-.661.937-.831 1.301-.326.555-.487.908-.824 1.291l-.189-.176c.659-1.098.283-1.434-.637-1.925l-.994 1.662c-.163.357-.498.739-.479 1.087.029.54.403.891.775 1.034.926.491 1.468.635 2.312-.284l.18-.011-.985 1.642-4.46-2.978.16-.186c.2.165.558.333.91.13.163-.189.667-.93 1.007-1.294l1.658-2.583zm-4.312 2.458c.028.536.038.712.417 1.055l-.162.189a10.778 10.778 0 0 1-.569-.515c-.194-.165-.555-.145-.742-.309l.13-.908.028-2.851c-.028-.533-.028-.533-.405-.873l-.833 1.118c-.167.368-.659 1.101-.819 1.466.019.357.207.525.574.688l-.169.186c-.368-.158-.744-.494-1.104-.663-.386-.326-.763-.669-1.302-.81l.16-.189c.371.161.558.322.903.13.352-.196.854-.939 1.013-1.294l1.822-2.78c.172-.193.671-.93.84-1.29.153-.365-.217-.53-.405-.694l-.018-.358c.558.33.934.667 1.494.993.366.154.74.497.932.662.932.666 1.692 1.515.862 2.805-.837 1.122-1.733 1.172-2.647.674v3.568zm51.287 2.366l-1.476-2.759-.456 2.98 1.932-.221zm-22.892 5.207c.178.344.192.873.377 1.217.191.344.538.337.884.326.701-.2 1.032-.901.833-1.771-.019-.698-.385-1.045-.744-1.375-.522-.154-.865.021-1.223.031l-.344.011.217 1.561zm-.23-2.079l.175-.004c.339-.199.686-.21.863-.386.337-.357.324-.876.311-1.396-.199-.865-.561-1.202-1.252-1.182-.171.176-.534.183-.534.183l.014.522.423 2.263zm-5.506 2.931c.009.344.206 1.042.381 1.393.194.337.541.326.887.144.872-.024 1.207-.726 1.004-1.771-.193-.519-.385-1.038-.913-1.203-.351-.157-.873-.144-1.397.039l-.182.003.22 1.395zm-.401-1.917l.346-.172c.344-.011.691-.018.866-.368.342-.358.332-.719.318-1.231-.198-.873-.572-1.381-1.44-1.188 0 0-.347.011-.524.193l.009.347.425 2.419zm26.776-3.079c.014.522-.311 1.402-.129 1.743.014.529.538.336.894.326l.009.354c-.355.011-.71.021-1.057.028-.349.183-.69.192-1.043.2l-.004-.172c.518-.187.685-.372.852-.905.149-.873.131-1.567.284-2.282l.76-4.716.348-.007 2.773 5.333c.182.34.545.862.733 1.199.183.171.53.161.877.153l.01.344c-.348.011-.873.025-1.219.211-.525.014-1.043.199-1.394.207l-.004-.169c.164-.186.693-.196.497-.715-.004-.172-.179-.519-.184-.69l-.743-1.214-2.27.421.01.351zm-3.265-4.456l.178-.004.42 2.258-.185.004c-.387-1.213-1.285-2.055-2.328-1.858-1.753.221-1.87 2.311-1.651 4.05.406 1.735 1.146 3.461 2.894 3.24 1.22-.379 1.546-1.431 1.509-2.826l.17-.183.42 2.605-.365-.513c-.51.712-1.205.901-1.905 1.095-1.915.406-3.534-.947-3.945-3.201-.238-2.266.769-4.215 2.681-4.433.883-.199 1.414-.038 2.12.288l-.013-.522zm-7.168 3.327c-.01-.354-.197-1.041-.206-1.389-.367-.34-.71-.329-.892-.326l-.18-.161c.521-.196 1.053-.21 1.406-.221.519-.011 1.041-.203 1.393-.214l.005.179c-.175.004-.526.193-.689.533.01.364.028 1.048.208 1.398l.445 3.307c.009.344.207 1.21.377 1.378.191.344.549.333.891.322l.01.358c-.518.014-.882.021-1.4.035-.347.179-.869.192-1.394.206l-.004-.168c.354-.011.697-.018.683-.547.167-.351-.028-1.041-.036-1.385l-.617-3.305zm-6.098 1.164c-.01-.351-.211-1.213-.221-1.567-.187-.34-.7-.329-.88-.15l-.188-.344c.526-.014 1.055-.024 1.404-.203.523-.015 1.058-.028 1.399-.218l.176.344c-.348.011-.694.018-.861.368.009.347.208 1.21.218 1.57l.435 3.296c.219 1.396.575 1.732 1.8 1.525.343-.183.878-.196 1.212-.561.348-.354.334-.873.32-1.402l.345-.187.222 2.094c-.166.003-.35.01-.515.014-1.58.218-3.328.606-4.9.827l-.005-.179c.35-.175.698-.186.688-.536.166-.351-.033-1.224-.042-1.574l-.607-3.117zm-5.598 1.01c-.01-.354-.205-1.213-.392-1.389-.184-.336-.531-.326-.888-.318l-.004-.169c.527-.192.874-.203 1.41-.217.337-.008.683-.193 1.045-.204 1.044-.21 2.274-.06 2.487 1.333.209 1.041-.49 1.574-1.179 1.953.529-.015 1.055-.028 1.421.312.525.33.895.842 1.084 1.354.023.877-.315 1.406-.654 1.768-.515.539-1.216.557-1.744.571-.167.182-.696.196-1.04.207-.538.014-1.057.196-1.571.382l-.009-.34c.172-.007.691-.021.677-.544-.009-.347-.2-1.048-.208-1.389l-.435-3.31zm-5.908 1.02c-.01-.34-.208-1.213-.217-1.554-.181-.343-.538-.336-.88-.146l-.009-.351c.347-.011.875-.025 1.218-.215.535-.014.882-.021 1.225-.199.868-.196 2.281-.06 2.501 1.501.202 1.048-.315 1.577-1 1.935.528-.014 1.05-.027 1.402.151.541.326.903.845.921 1.539.189.701-.134 1.228-.655 1.764-.342.357-1.034.547-1.562.561-.536.015-.883.024-1.222.211-.711.018-1.049.21-1.754.228l-.005-.182c.344-.187.701-.197.869-.548-.009-.34-.209-1.209-.219-1.557l-.613-3.138zm59.424.922l-.531-3.204-1.422 2.854 1.953.35zm11.901-.792c0-.351-.177-1.238-.177-1.424-.17-.536-.536-.351-.885-.351v-.364h1.414c.351 0 .888-.176 1.422-.176v.354c-.351 0-.721 0-.885.364v1.596l.351 3.212c0 .357 0 1.24.184 1.602.177.354.531.354.878.354v.175h-1.412c-.537.176-.89.176-1.42.176v-.176c.184 0 .715 0 .715-.529.168-.361 0-1.069 0-1.427l-.185-3.386zm-6.976-.681c0-.361.188-1.248.188-1.599a1 1 0 0 0-.89-.544l.183-.164c.348 0 .88.164 1.236.164.534.187 1.065.187 1.594.187l-.171.357c-.177 0-.717-.175-.889.175-.177.352-.177 1.249-.361 1.596l-.529 3.397c-.173 1.417 0 1.774 1.062 1.957.54 0 1.064.175 1.415 0 .724-.361.724-.723.893-1.431h.359l-.528 2.139c0-.176-.362-.176-.362-.176-1.776-.357-3.371-.532-5.134-.894v-.179c.344 0 .698 0 1.056-.354 0-.172.177-1.062.359-1.424l.519-3.207zm-7.41 1.834c-.177.354-.529 1.241-.705 1.603 0 .525.528.525.705.712v.175c-.357 0-.705-.175-1.057-.175-.363 0-.718-.187-1.064-.187l.17-.164c.531 0 .701-.187 1.069-.723.353-.712.705-1.42 1.064-2.136l2.125-4.271.351.169 1.062 6.062c.188.354.188 1.062.359 1.424.172.368.352.368.702.536v.18c-.351 0-.873-.18-1.413-.18-.36-.168-.885-.168-1.416-.168l.177-.368c.178 0 .705.183.705-.175v-1.073l-.177-1.241-2.476-.361-.181.361zm-.683-3.646l-.183-.172c.183-1.073-.175-1.438-1.059-1.616-.531 0-1.073-.168-1.073.179l-.878 5.519c0 .897 0 1.073.878 1.435v.172c-.523 0-1.059-.172-1.583-.351-.54 0-1.071 0-1.603-.183v-.176c1.062 0 1.252-.175 1.421-1.072l.706-5.522c.181-.168-.359-.354-.706-.354-1.069-.164-1.421-.164-1.592 1.248l-.358-.175.358-1.788 6.023 1.069-.351 1.787zm-8.98-1.196c0-.361.174-1.066 0-1.431 0-.351-.351-.533-.697-.533v-.351c.517.172 1.059.351 1.413.351.532 0 1.059.183 1.592.183l-.181.172c-.189 0-.71 0-.879.361-.186.354-.186 1.062-.357 1.427l-.359 3.38c-.17.361-.17 1.244-.17 1.431 0 .529.354.529.701.529v.361c-.531-.189-.889-.189-1.413-.361-.538 0-.885 0-1.413-.183v-.175c.344 0 .692 0 .875-.358.191-.175.357-1.069.357-1.416l.531-3.387zm42.778-5.339l-2.653-1.781 1.062 3.032 1.591-1.251zm-11.948 8.589l-2.307-2.132.534 3.033 1.773-.901zm10.53-6.633c0 .533.361 1.427.54 1.781.355.357.708 0 .878-.179l.183.357c-.183.179-.527.364-.882.54-.179.161-.542.351-.719.712l-.174-.361c.351-.351.351-.526.351-1.069-.351-.891-.531-1.603-.701-2.314l-1.42-4.628.17-.186 5.151 3.572c.17.172.874.712 1.059.712.347.176.708 0 1.065-.183v.358c-.357.182-.719.354-1.065.708-.351.357-.712.54-1.059.897l-.178-.186c.178-.172.524-.533.348-.891-.17-.176-.524-.348-.708-.529l-1.056-.716-1.957 1.424.174.181zm-8.861 1.29c-.529-.186-.893-.186-1.239.183l-.181-.368c.354-.172.527-.172.712-.526.179 0 .531-.175.708-.354l6.916 2.317-1.953-2.683c-.354-.347-.704-1.065-1.065-1.416-.521-.357-.712-.179-1.236 0l-.181-.179c.354-.179.705-.361 1.07-.537.173-.36.347-.529.708-.722l.177.192c-.177.357-.538.357-.354.888.178.357.882 1.248 1.245 1.773l2.829 3.931-.177.172c-.354 0-.705-.172-1.062-.357l-6.387-2.132 2.306 3.201c.188.364.716.894 1.062 1.248.361.183.712 0 1.065-.186v.186c-.179.364-.527.54-.882.712-.357.175-.53.354-.896.715l-.163-.179c.354-.361.528-.536.354-1.065a5.905 5.905 0 0 0-.896-1.259l-2.48-3.555zm-3.257 7.128c0 .354.17 1.252.347 1.774.181.361.698.176.879 0l.18.176c-.36.186-.523.361-.878.547-.357.172-.712.347-.889.522l-.183-.176c.359-.347.544-.532.359-1.244 0-.716-.177-1.6-.359-2.311l-.887-4.811h.361l4.6 4.092c.186.182.717.719 1.068.89.349.18.708 0 .889 0l.177.18c-.357.175-.887.36-1.243.715-.351.179-.891.354-1.243.712l-.179-.357c.357 0 .717-.354.531-.709-.174-.186-.353-.54-.706-.711l-.884-.719-2.125 1.069.185.361z"/><g fill="#FFF"><path d="M18.779 83.35a197.224 197.224 0 0 1-1.18-3.695l-.103-.347 4.069-2.314c-.434-2.085-.725-3.957-.886-5.702l-4.585-.945-.012-.358c-.035-.979-.035-5.013 0-5.993l.012-.357 4.584-.945a47.28 47.28 0 0 1 .884-5.7l-2.256-1.265 1.542-.179 1.746.979-.073.329c-.491 2.23-.807 4.273-.967 6.249l-.027.339-4.547.937a197.158 197.158 0 0 0 0 5.216l4.547.937.028.338c.158 1.893.474 3.938.968 6.252l.069.326-4.018 2.284c.19.617.511 1.627.831 2.608l-.626 1.006zm8.107 13.289c.398.55.764 1.052 1.018 1.389l4.192-1.904.223.249c1.306 1.469 2.776 2.928 4.494 4.46l.249.221-1.908 4.235c.943.726 3.217 2.367 4.207 3.044l3.401-3.124.291.175a45.882 45.882 0 0 0 5.661 2.865l.314.133-.521 4.614c1.156.403 3.814 1.266 4.971 1.616l2.253-4.021.33.073c2.181.48 4.284.807 6.249.965l.339.027.938 4.548c.576.011 1.539.018 2.621.018 1.075 0 2.027-.007 2.593-.018l.901-4.506.335-.031c2.279-.225 4.323-.554 6.25-1.003l.331-.077 2.29 4.025c1.18-.354 3.845-1.213 4.974-1.613l-.521-4.579.309-.137a47.592 47.592 0 0 0 5.629-2.899l.289-.175 3.441 3.127c.983-.666 3.241-2.328 4.199-3.05l-1.941-4.197.256-.225c1.73-1.504 3.198-2.97 4.484-4.484l.222-.26 4.24 1.911c.728-.943 2.368-3.215 3.047-4.204l-3.124-3.404.174-.291a47.951 47.951 0 0 0 2.864-5.627l.134-.309 4.614.487c.41-1.161 1.286-3.808 1.595-4.938l-4-2.293.073-.326c.491-2.233.807-4.277.966-6.249l.028-.34 4.555-.938a97.27 97.27 0 0 0 .001-5.209l-4.556-.905-.028-.341c-.186-2.23-.522-4.329-.999-6.238l-.083-.334 4.038-2.297c-.33-1.167-1.19-3.847-1.587-4.966l-4.621.556-.132-.32a41.25 41.25 0 0 0-2.862-5.655l-.176-.292 3.13-3.407c-.677-1.013-2.326-3.296-3.075-4.236l-4.174 1.948-.225-.259a45.804 45.804 0 0 0-4.488-4.487l-.256-.223 1.911-4.203c-.948-.74-3.217-2.414-4.232-3.083l-3.373 3.13-.292-.174a45.885 45.885 0 0 0-5.661-2.865l-.313-.132.521-4.592c-1.114-.418-3.791-1.28-4.968-1.612l-2.26 4.034-.335-.079a41.141 41.141 0 0 0-6.241-1.001l-.338-.027-.941-4.523a79.572 79.572 0 0 0-2.607-.034 79.45 79.45 0 0 0-2.604.034l-.904 4.52-.34.028c-2.232.187-4.331.522-6.238.999l-.333.083-2.331-4.036c-1.149.332-3.803 1.194-4.938 1.614l.521 4.59-.314.132a42.957 42.957 0 0 0-5.623 2.863l-.29.175-3.438-3.126c-.478.33-1.253.887-2.035 1.457l.146-1.229a57.895 57.895 0 0 1 1.682-1.185l.294-.192 3.46 3.147a44.364 44.364 0 0 1 5.137-2.617l-.524-4.605.32-.13c.949-.387 4.749-1.619 5.705-1.866l.335-.087 2.337 4.048a40.27 40.27 0 0 1 5.708-.912l.907-4.537.345-.024h.001l.01-.001h.008l.011-.001h.011v-.001l.298-.021.015-.001.081-.006v.001l.032-.001h.349c.645-.015 1.48-.021 2.197-.021 1.095 0 2.462.014 3.014.053l.344.024.941 4.537c1.888.168 3.761.468 5.703.914l2.269-4.048.336.084c1.007.251 4.844 1.487 5.75 1.87l.312.132-.522 4.602a46.535 46.535 0 0 1 5.167 2.616l3.383-3.14.293.176c.893.536 4.139 2.938 4.898 3.559l.271.221-1.923 4.23a46.387 46.387 0 0 1 4.095 4.093l4.187-1.953.225.261c.652.756 3.017 4.03 3.562 4.901l.183.294-3.143 3.421a42.362 42.362 0 0 1 2.618 5.167l4.646-.558.126.33c.351.911 1.576 4.723 1.83 5.734l.085.335-4.047 2.302c.423 1.767.728 3.682.912 5.705l4.572.907.024.345c.069.986.069 5.041 0 6.026l-.024.343-4.572.941a46.71 46.71 0 0 1-.886 5.705l4.011 2.302-.073.326c-.223 1.006-1.506 4.831-1.83 5.704l-.121.333-4.656-.49a48.488 48.488 0 0 1-2.615 5.137l3.148 3.429-.193.295c-.552.845-2.887 4.081-3.515 4.849l-.221.27-4.26-1.921c-1.198 1.382-2.544 2.725-4.101 4.095l1.961 4.239-.285.221c-.778.604-3.999 2.98-4.85 3.514l-.291.183-3.455-3.142a49.01 49.01 0 0 1-5.137 2.644l.524 4.621-.328.126c-.91.348-4.727 1.574-5.721 1.858l-.343.099-2.311-4.061a48.652 48.652 0 0 1-5.701.911l-.91 4.555-.36.015c-.546.018-1.898.024-2.984.024-1.084 0-2.444-.007-3.009-.024l-.357-.015-.944-4.582a48.164 48.164 0 0 1-5.701-.888l-2.277 4.064-.345-.099c-.944-.27-4.749-1.501-5.715-1.858l-.334-.122.525-4.653a47.24 47.24 0 0 1-5.168-2.615l-3.428 3.148-.295-.193c-.846-.554-4.083-2.889-4.85-3.517l-.27-.221 1.924-4.267a55.93 55.93 0 0 1-4.097-4.061l-4.241 1.929-.22-.288c-.21-.27-.622-.831-1.097-1.483l.582-.746z"/><path d="M66.137 103.875a36.638 36.638 0 0 1-15.43-3.376l-.653-.302 16.128-20.298 15.761 20.448-.652.291a37.285 37.285 0 0 1-15.154 3.237zM51.834 99.77a35.482 35.482 0 0 0 14.302 2.977c4.795 0 9.631-.981 14.037-2.851L66.169 81.73 51.834 99.77zM92.77 92.6L78.448 71.008l24.325-8.673.076.71a36.878 36.878 0 0 1-9.593 29.029l-.486.526zM80.186 71.586l12.727 19.186a35.74 35.74 0 0 0 8.888-26.894l-21.615 7.708zM39.324 92.287l-.479-.533a37.059 37.059 0 0 1-9.274-29.134l.084-.712 24.287 9.043-14.618 21.336zm-8.711-28.819a35.925 35.925 0 0 0 8.595 26.993l12.987-18.957-21.582-8.036zm43.176-6.877l-.736-25.836.699.147c10.48 2.204 19.459 8.811 24.639 18.125l.347.625-24.949 6.939zm.431-24.431l.656 22.958 22.173-6.167C92.1 40.458 83.845 34.386 74.22 32.16zM58.621 56.565l-24.769-7.309.357-.62c5.334-9.264 14.38-15.753 24.817-17.806l.702-.139-1.107 25.874zM35.55 48.582l22.006 6.493.984-22.992c-9.588 2.087-17.901 8.053-22.99 16.499z"/><path d="M66.176 33.47l-7.792 22.237-.123.349-.369.009-23.581.57 18.743 14.277.294.223-.105.354-6.753 22.646L65.872 80.73l.302-.21.305.21 19.415 13.404-6.751-22.574-.105-.352.295-.226 18.744-14.345-23.544-.537-.372-.009-.122-.347-7.863-22.274zm-8.679 21.537l8.173-23.322.503-1.435.506 1.432 8.244 23.36 24.696.563 1.52.035-1.206.923-19.66 15.045 7.081 23.677.437 1.455-1.252-.862-20.364-14.061-20.329 14.061-1.25.862.434-1.455 7.082-23.748-19.66-14.973-1.209-.921 1.521-.037 24.733-.599z"/><g fill-rule="evenodd" clip-rule="evenodd"><path d="M22.658 104.549l.004.007zM20.529 100.211l2.129 4.338z"/></g></g></svg>